<svg xmlns="http://www.w3.org/2000/svg" width="29.988" height="28.216" viewBox="0 0 29.988 28.216">
  <path id="bank-finance-loan-icon" d="M.655,9.756,14.412,0,28.241,9.756Zm24.3,9.163-.316-1.447c1.354.252,3.526,3.009,4.228,4.263a11.836,11.836,0,0,1,.929,2.133c.512,1.906.019,3.69-2.049,4.105a25.775,25.775,0,0,1-5.076.209c-1.466-.075-3.733-.073-4.326-1.578-.955-2.428.8-5.321,2.393-7.092a8.875,8.875,0,0,1,.652-.651A6.23,6.23,0,0,1,23.35,17.49l-.723,1.345,1.05-1.391h.552l.73,1.475Zm-.675,1.147v.407a2.413,2.413,0,0,1,.691.166,1.362,1.362,0,0,1,.5.377,1.615,1.615,0,0,1,.262.395.914.914,0,0,1,.093.373.445.445,0,0,1-.138.326.455.455,0,0,1-.333.138.469.469,0,0,1-.479-.4.857.857,0,0,0-.6-.626v1.565c.31.085.559.163.743.234a1.519,1.519,0,0,1,.5.3,1.427,1.427,0,0,1,.361.494,1.57,1.57,0,0,1,.125.63,1.658,1.658,0,0,1-.2.8,1.607,1.607,0,0,1-.593.613,2.107,2.107,0,0,1-.931.281v.937a.878.878,0,0,1-.044.324.183.183,0,0,1-.19.1.212.212,0,0,1-.19-.082.48.48,0,0,1-.054-.257V26.153a2.353,2.353,0,0,1-.769-.207,1.806,1.806,0,0,1-.55-.393,1.656,1.656,0,0,1-.324-.489,1.287,1.287,0,0,1-.105-.5.452.452,0,0,1,.141-.324.471.471,0,0,1,.351-.145.5.5,0,0,1,.286.078A.416.416,0,0,1,23,24.4a4.68,4.68,0,0,0,.176.473.936.936,0,0,0,.228.3,1.03,1.03,0,0,0,.4.207V23.625a4.634,4.634,0,0,1-.842-.31,1.417,1.417,0,0,1-.549-.487,1.611,1.611,0,0,1,.2-1.874,1.844,1.844,0,0,1,1.19-.481v-.4c0-.211.08-.316.237-.316s.241.1.241.308Zm-.478,2.581V21.206a1.329,1.329,0,0,0-.493.248.7.7,0,0,0-.012.917,1.518,1.518,0,0,0,.5.276Zm.478,1.117v1.648a1.032,1.032,0,0,0,.586-.3.778.778,0,0,0,.207-.535.64.64,0,0,0-.2-.506,1.616,1.616,0,0,0-.592-.3ZM22.91,15.4c-.239-.7-.455-1.417-.635-2.141.676-.743,3.294-.644,4.046-.011l-.7,1.656c.375-.492.5-.694.725-.969a2.19,2.19,0,0,1,.265.206,1.093,1.093,0,0,1,.411.654.686.686,0,0,1-.187.548l-1.6,1.862a3.468,3.468,0,0,1-.6-.152c.091-.213.2-.448.291-.661l-.582.628a2.175,2.175,0,0,0-1.548.189l-1.621-1.946a.538.538,0,0,1-.139-.347c0-.471.7-.876,1.07-1.03l.8,1.516ZM0,23.993H1.6V22.508h.839V21.8h.9V13.3H1.5V11.264H23.014a3.571,3.571,0,0,0-1.837.85,1.6,1.6,0,0,0-.429.712,3.694,3.694,0,0,0-.529.417l-.059.058h-.925v5.524A12.736,12.736,0,0,0,16.9,22.806a7.037,7.037,0,0,0-.393,2.742H0V23.993ZM25.4,11.264h1.922v.766A4.3,4.3,0,0,0,25.4,11.264ZM7.645,22.508H8.686V21.8h.9V13.3H6.742v8.5h.9Zm6.246,0h1.044V21.8h.9V13.3H12.988v8.5h.9ZM9.779,7.3l4.654-3.57,4.68,3.57Z" fill="#653780" fill-rule="evenodd"/>
</svg>
