<svg xmlns="http://www.w3.org/2000/svg" width="21.352" height="19.678" viewBox="0 0 21.352 19.678">
  <g id="XMLID_830_" transform="translate(0 -17.969)">
    <g id="Group_11960" data-name="Group 11960" transform="translate(0 17.969)">
      <g id="Group_11959" data-name="Group 11959" transform="translate(0 0)">
        <path id="Path_24675" data-name="Path 24675" d="M15.678,112.782h0a1.858,1.858,0,0,1-1.856-1.856v-3.082a1.858,1.858,0,0,1,1.856-1.856h4.835l.087,0v-3.07a1.431,1.431,0,0,0-1.431-1.431H1.431A1.431,1.431,0,0,0,0,102.922v12.928a1.431,1.431,0,0,0,1.431,1.431H19.17a1.431,1.431,0,0,0,1.431-1.431v-3.07l-.087,0Z" transform="translate(0 -97.602)" fill="#653780"/>
        <path id="Path_24676" data-name="Path 24676" d="M324.349,219.925h-4.835a.839.839,0,0,0-.839.839v3.082a.839.839,0,0,0,.839.839h4.835a.839.839,0,0,0,.839-.839v-3.082A.839.839,0,0,0,324.349,219.925Zm-3.169,3.59a1.211,1.211,0,1,1,1.211-1.211A1.211,1.211,0,0,1,321.18,223.515Z" transform="translate(-303.836 -210.521)" fill="#653780"/>
        <path id="Path_24677" data-name="Path 24677" d="M161.56,19.238a1.847,1.847,0,0,0-2.334-1.175l-7.269,2.4h10.008Z" transform="translate(-144.882 -17.969)" fill="#653780"/>
      </g>
    </g>
  </g>
</svg>
