<svg id="Iconly_Bold_Chat" data-name="Iconly/Bold/Chat" xmlns="http://www.w3.org/2000/svg" width="23.357" height="23.357" viewBox="0 0 23.357 23.357">
  <g id="Chat">
    <path id="Chat-2" data-name="Chat" d="M11.678,23.357a11.626,11.626,0,0,1-5.746-1.52,2.567,2.567,0,0,0-1.293-.5,1.417,1.417,0,0,0-.447.074l-2.36.7a.88.88,0,0,1-.264.042.724.724,0,0,1-.584-.279.756.756,0,0,1-.11-.675l.783-2.62a1.221,1.221,0,0,0-.082-1.052A12.34,12.34,0,0,1,0,11.7,11.863,11.863,0,0,1,3.307,3.541,11.55,11.55,0,0,1,11.7,0a11.521,11.521,0,0,1,8.315,3.5,11.746,11.746,0,0,1,2.452,3.717,11.55,11.55,0,0,1,.888,4.447,11.84,11.84,0,0,1-1.01,4.872,11.209,11.209,0,0,1-2.657,3.682A11.964,11.964,0,0,1,11.678,23.357Zm5.36-13.146a1.5,1.5,0,1,0,1.495,1.5A1.5,1.5,0,0,0,17.039,10.211Zm-5.406,0A1.481,1.481,0,0,0,10.161,11.7a1.495,1.495,0,1,0,1.495-1.485h-.022Zm-5.361,0a1.5,1.5,0,1,0,1.495,1.5A1.5,1.5,0,0,0,6.272,10.211Z" fill="#653780"/>
  </g>
</svg>
