<svg xmlns="http://www.w3.org/2000/svg" width="13.815" height="13.596" viewBox="0 0 13.815 13.596">
  <g id="services-plumber-icon" transform="translate(0 0.001)">
    <path id="Path_24678" data-name="Path 24678" d="M13.191,11.382a2.561,2.561,0,1,0-.733,1.092,2.592,2.592,0,0,0,.733-1.092ZM9.71,10.836a.67.67,0,0,0-.578.426.835.835,0,0,0,.039.654c.272-.83,1.228-.34.613.376a.733.733,0,0,0,.779-.716,1.162,1.162,0,0,1,.082-.395.58.58,0,0,1,.1-.135c.147-.162.311-.3.472-.471.3-.316.947-.025,1.193-.643a.835.835,0,0,0-.039-.654c-.272.83-1.228.34-.613-.376a.733.733,0,0,0-.779.716.712.712,0,0,1-.193.558c-.145.145-.3.293-.449.435a.573.573,0,0,1-.152.116,1.963,1.963,0,0,1-.474.107v0ZM9.7,2.682l0,.01A15.848,15.848,0,0,0,6.809,2.5a18.068,18.068,0,0,0-3.28.31v0c-.851-4,7.293-3.431,6.17-.123ZM4.964,7.018a3.673,3.673,0,0,1-1.515.568L4.17,9.628h3.7A3.045,3.045,0,0,0,12.924,12.7a3,3,0,0,0,.892-2.153,3.048,3.048,0,0,0-3.8-2.95,3.65,3.65,0,0,1-1.239-.252,1.464,1.464,0,0,1-.4-.389l-.021-.337a2.026,2.026,0,0,0,.325-.333,2.4,2.4,0,0,0,.4-.9c.021-.075.042-.15.066-.225.2-.021.383-.25.491-.533a1.936,1.936,0,0,0,.117-.5A.749.749,0,0,0,9.7,3.707a.265.265,0,0,0-.213-.146,1.767,1.767,0,0,1,.081-.448,15.783,15.783,0,0,0-2.755-.175,17.487,17.487,0,0,0-3.193.3l.092.442a.831.831,0,0,0-.066.5,1.7,1.7,0,0,0,.163.559c.108.213.262.362.442.362.017.049.037.1.054.159A2.984,2.984,0,0,0,4.817,6.32a1.915,1.915,0,0,0,.246.25l-.021.379c-.024.022-.051.046-.078.07Zm3.125-.264a2.022,2.022,0,0,1-1.365.471A2.344,2.344,0,0,1,5.35,6.717a1.376,1.376,0,1,0,2.739.037Zm.7-1.432c.025-.088.054-.179.088-.288a.1.1,0,0,1,.1-.071c.137.025.275-.175.371-.417A1.784,1.784,0,0,0,9.465,4.1a.615.615,0,0,0-.037-.32c-.037-.069-.141-.029-.217-.1-.395,1.047-3.835,1.52-5.243.079a.65.65,0,0,0-.042.379,1.56,1.56,0,0,0,.146.5c.088.171.2.288.313.259a.094.094,0,0,1,.112.058c.034.092.054.163.079.233a2.184,2.184,0,0,0,4.218.134Zm-5.63,4.953a.3.3,0,1,1-.3.3.3.3,0,0,1,.3-.3ZM2.614,7.74c-.93.211-1.747.67-2.206,2.688L0,11.99H2.212V10.057a.431.431,0,0,1,.431-.431H3.1A7.228,7.228,0,0,0,2.614,7.74Z" transform="translate(0 0)" fill="#9c3587" fill-rule="evenodd"/>
  </g>
</svg>
