<svg id="cpu-fan-svgrepo-com" xmlns="http://www.w3.org/2000/svg" width="38.042" height="38.045" viewBox="0 0 38.042 38.045">
  <path id="Path_24191" data-name="Path 24191" d="M3.579,0H34.46a3.594,3.594,0,0,1,3.582,3.582V34.463a3.594,3.594,0,0,1-3.582,3.582H3.579A3.589,3.589,0,0,1,0,34.463V3.579A3.594,3.594,0,0,1,3.579,0ZM17.718,22.439a3.814,3.814,0,0,1-1.3-.712,5.263,5.263,0,0,1-1.133-1.35c-.155.009-.3.012-.443.012-.248,0-.5-.009-.774-.028a9.328,9.328,0,0,1-2.653-.656,11.085,11.085,0,0,0-1.594-.489,1.711,1.711,0,0,0-.539-.025.988.988,0,0,0-.638.368,1.91,1.91,0,0,0-.365.836,3.265,3.265,0,0,0-.022,1.111,5.139,5.139,0,0,0,.26.978,7.661,7.661,0,0,0,.427.957,6.576,6.576,0,0,0,.48.793,8.179,8.179,0,0,0,.576.731,5.912,5.912,0,0,0,2.111,1.613,3.309,3.309,0,0,0,1.895.223,3.673,3.673,0,0,0,1.749-.895,7.048,7.048,0,0,0,1.78-2.644,2.2,2.2,0,0,0,.152-.585.84.84,0,0,0,.028-.238ZM22.9,20.377a3.783,3.783,0,0,1-.82,1.232,5.206,5.206,0,0,1-1.443,1.012c-.006.155-.012.3-.028.443-.019.248-.05.5-.093.768a9.3,9.3,0,0,1-.879,2.588,11.1,11.1,0,0,0-.622,1.545,1.551,1.551,0,0,0-.068.536,1,1,0,0,0,.313.666,1.912,1.912,0,0,0,.8.437,3.236,3.236,0,0,0,1.105.118,5.147,5.147,0,0,0,1-.176,7.79,7.79,0,0,0,.991-.347,6.675,6.675,0,0,0,.83-.412,8.614,8.614,0,0,0,.777-.511,5.928,5.928,0,0,0,1.786-1.966,3.3,3.3,0,0,0,.384-1.87,3.707,3.707,0,0,0-.743-1.82,7.027,7.027,0,0,0-2.483-2,2.045,2.045,0,0,0-.57-.2,1.092,1.092,0,0,0-.235-.046Zm-2.514-4.8a3.852,3.852,0,0,1,1.266.765,5.226,5.226,0,0,1,1.077,1.4c.146,0,.294,0,.443.009.266.009.52.028.771.056a9.27,9.27,0,0,1,2.622.768,11.227,11.227,0,0,0,1.576.551.129.129,0,0,0,.019.006,1.534,1.534,0,0,0,.517.04.994.994,0,0,0,.653-.341,1.971,1.971,0,0,0,.4-.824,3.328,3.328,0,0,0,.068-1.108,5.114,5.114,0,0,0-.217-.991,7.714,7.714,0,0,0-.39-.975,7.337,7.337,0,0,0-.449-.811,9.22,9.22,0,0,0-.545-.752,5.868,5.868,0,0,0-2.043-1.693,3.349,3.349,0,0,0-1.885-.3,3.716,3.716,0,0,0-1.786.82A7.018,7.018,0,0,0,20.6,14.758a2.351,2.351,0,0,0-.176.579,1.426,1.426,0,0,0-.034.238Zm.687,1.638a2.635,2.635,0,1,0,.771,1.864,2.628,2.628,0,0,0-.771-1.864Zm-5.486.536a3.816,3.816,0,0,1,.758-1.269A5.236,5.236,0,0,1,17.743,15.4c0-.149,0-.294.006-.443q.014-.395.056-.771a9.307,9.307,0,0,1,.758-2.625,11.41,11.41,0,0,0,.551-1.576,1.5,1.5,0,0,0,.043-.536,1,1,0,0,0-.344-.653,1.913,1.913,0,0,0-.824-.4,3.327,3.327,0,0,0-1.108-.065,5.073,5.073,0,0,0-.991.22,8,8,0,0,0-.975.39A7.14,7.14,0,0,0,14.1,9.4a7.862,7.862,0,0,0-.749.545A5.863,5.863,0,0,0,11.662,12a3.286,3.286,0,0,0-.294,1.882,3.671,3.671,0,0,0,.824,1.783,7.075,7.075,0,0,0,2.573,1.882,2.232,2.232,0,0,0,.576.173,2.311,2.311,0,0,0,.251.031Zm3.43-12.984a14.26,14.26,0,1,1-14.26,14.26,14.259,14.259,0,0,1,14.26-14.26Zm14.433-1.8a1.808,1.808,0,1,1-1.808,1.808A1.808,1.808,0,0,1,33.454,2.96Zm-28.869,0A1.808,1.808,0,1,1,2.777,4.768,1.808,1.808,0,0,1,4.585,2.96ZM33.454,31.494A1.808,1.808,0,1,1,31.646,33.3a1.808,1.808,0,0,1,1.808-1.808ZM6.4,33.3a1.808,1.808,0,1,1-1.808-1.808A1.808,1.808,0,0,1,6.4,33.3Z" fill="#653780" fill-rule="evenodd"/>
</svg>
