<svg xmlns="http://www.w3.org/2000/svg" width="60.5" height="37.982" viewBox="0 0 60.5 37.982">
  <path id="online-medical-report-icon" d="M1.461,34.782H7.332a1.206,1.206,0,0,1-.375-.884V1.162A1.119,1.119,0,0,1,8.02,0H52.479a1.118,1.118,0,0,1,1.062,1.162V33.9a1.205,1.205,0,0,1-.375.884h5.873a1.4,1.4,0,0,1,1.032.47,1.7,1.7,0,0,1,0,2.259,1.4,1.4,0,0,1-1.032.471H1.461a1.4,1.4,0,0,1-1.03-.47,1.7,1.7,0,0,1,0-2.259,1.4,1.4,0,0,1,1.032-.471ZM45.468,7.841V30.288h-.9V7.841Zm-29.539,0V30.288h-.9V7.841Zm2.519,2.754H32.59v1.139H18.449Zm0,3.225h10v1.139h-10ZM38.916,9.714H39.98a.382.382,0,0,1,.362.4v1.478h1.349a.381.381,0,0,1,.36.4v1.163a.381.381,0,0,1-.36.4H40.341v1.444a.38.38,0,0,1-.362.395H38.916a.38.38,0,0,1-.362-.395V13.543H37.205a.381.381,0,0,1-.36-.4V11.982a.381.381,0,0,1,.36-.4h1.349V10.11a.382.382,0,0,1,.362-.4Zm-20.25,18.13H38.584v1.14H18.666Zm-.217-3.611H42v1.14H18.449Zm.217-4.133H26.58L27.6,18.544l1.273,2.007,1.388-2.964,1.49,3.2.705-.569.308-.114H42v1.139H32.935l-1.551,1.254L30.259,20.08l-1.251,2.672-1.422-2.241-.477.727H18.666V20.1ZM51.8,4.836H8.7V33.294H51.8ZM14.045,1.874a.672.672,0,0,1,.639.7.642.642,0,1,1-1.279,0A.671.671,0,0,1,14.045,1.874Zm-2.236,0a.67.67,0,0,1,.638.7.641.641,0,1,1-1.277,0,.672.672,0,0,1,.639-.7Zm-2.237,0a.672.672,0,0,1,.64.7.642.642,0,1,1-1.28,0,.671.671,0,0,1,.639-.7ZM28.455,35.524h3.651a.681.681,0,0,1,0,1.356H28.455a.681.681,0,0,1,0-1.356Z" fill="#9c3587" fill-rule="evenodd"/>
</svg>
