<svg id="Iconly_Bold_Call" data-name="Iconly/Bold/Call" xmlns="http://www.w3.org/2000/svg" width="8.862" height="8.862" viewBox="0 0 8.862 8.862">
  <g id="Call">
    <path id="Call-2" data-name="Call" d="M7.163,5.485a1.01,1.01,0,0,0-.742.195c-.214.124-.619.454-.852.369a5.287,5.287,0,0,1-2.8-2.73c-.085-.238.242-.646.366-.862a1.035,1.035,0,0,0,.193-.747A6.073,6.073,0,0,0,2.3.272.847.847,0,0,0,1.782,0C1.117-.028.374.86.243,1.072A1.725,1.725,0,0,0,.249,2.858,13.849,13.849,0,0,0,6.023,8.607a2.38,2.38,0,0,0,.994.255,1.293,1.293,0,0,0,.776-.243c.169-.1,1.093-.877,1.068-1.56a.86.86,0,0,0-.269-.517A6.115,6.115,0,0,0,7.163,5.485" transform="translate(0 0)" fill="#200e32"/>
  </g>
</svg>
