<svg id="passport-ticket-icon" xmlns="http://www.w3.org/2000/svg" width="60.5" height="48.496" viewBox="0 0 60.5 48.496">
  <path id="Path_24416" data-name="Path 24416" d="M34.29,3.841a.968.968,0,0,1,.96.94V16.461L45.31,6.4a1.736,1.736,0,0,1,2.442,0l3.471,3.471a.546.546,0,0,1,.074.655,3.286,3.286,0,0,0-.468,2.127,3.344,3.344,0,0,0,.955,1.95,3.275,3.275,0,0,0,1.95.955,3.372,3.372,0,0,0,2.1-.438.545.545,0,0,1,.689.064L60,18.657A1.736,1.736,0,0,1,60,21.1L35.25,45.846v1.718a.933.933,0,0,1-.931.931H2.669a2.654,2.654,0,0,1-1.881-.783h0A2.669,2.669,0,0,1,0,45.822V2.526A.883.883,0,0,1,.1,2.1,2.853,2.853,0,0,1,2.851,0H34.29a.931.931,0,0,1,0,1.861H2.851a.989.989,0,0,0-.7,1.689.983.983,0,0,0,.7.291ZM35.25,18v5.446c.133.025.286.059.463.1l.857-.857.788.788-.364.364.94.222.96-.96.793.793-.468.468,1.2.276,2.014-2.014a.877.877,0,0,1,1.2.167h0a.873.873,0,0,1,.167,1.2L41.779,26l.276,1.187.463-.463.793.793-.955.955.217.94.359-.359.793.793-.852.852,0,.02c.409,1.792.044,1.231-1.315,2.59L39.593,28.2l-1.95,1.95a2.5,2.5,0,0,1-.551,2.447h0l-.832-.812c-.064-.4-.094-.684-.128-.891a1.393,1.393,0,0,1-.355-.246h0a1.22,1.22,0,0,1-.227-.31c-.084-.01-.187-.02-.3-.034v8.376l2.831,2.831L54.163,25.422,41,12.251,35.25,18Zm0,7.671v2.974a4.75,4.75,0,0,1,1.034.123l1.945-1.945L35.25,25.668Zm0,14.5v4.171l2.088-2.088L35.25,40.164ZM54.911,24.679,41.74,11.507l4.338-4.338a.643.643,0,0,1,.468-.187.689.689,0,0,1,.468.187l3.181,3.181a4.46,4.46,0,0,0-.4,2.442,4.411,4.411,0,0,0,6.288,3.447l3.181,3.181a.643.643,0,0,1,.187.468.689.689,0,0,1-.187.468l-.015-.015-4.333,4.338ZM25.575,25.5a.45.45,0,0,1,.084,0,10.542,10.542,0,0,0,.512-1.029s0-.01.01-.02a8.469,8.469,0,0,0,.522-1.709,8.745,8.745,0,0,0,.167-1.4H24.107a8.916,8.916,0,0,1-1.246,4.146H25.57v.01Zm-.483.881H22.315A18.619,18.619,0,0,1,18.908,30c.222-.03.448-.064.665-.108a8.333,8.333,0,0,0,1.723-.537,9.677,9.677,0,0,0,1.576-.852A8.827,8.827,0,0,0,24.221,27.4a8.665,8.665,0,0,0,.881-1.019ZM16.539,30a18.63,18.63,0,0,1-3.407-3.624H10.355A9.094,9.094,0,0,0,12.585,28.5a9.255,9.255,0,0,0,1.576.852s.01,0,.02.01a8.809,8.809,0,0,0,1.709.527c.217.044.438.079.665.108ZM9.774,25.5h2.8a8.892,8.892,0,0,1-1.246-4.146H8.563a10.027,10.027,0,0,0,.167,1.4,8.333,8.333,0,0,0,.537,1.723A9.822,9.822,0,0,0,9.774,25.5ZM8.563,20.469H11.34a9.623,9.623,0,0,1,1.374-4.146H9.769a9.822,9.822,0,0,0-.507,1.019s0,.01-.01.02A8.47,8.47,0,0,0,8.73,19.07a9.126,9.126,0,0,0-.167,1.4Zm1.787-5.032h2.935A20.683,20.683,0,0,1,16.6,11.8c-.246.03-.487.064-.724.113a8.333,8.333,0,0,0-1.723.537,10.069,10.069,0,0,0-1.576.852,8.827,8.827,0,0,0-1.349,1.108,8.665,8.665,0,0,0-.881,1.019l0,0ZM18.844,11.8a20.3,20.3,0,0,1,3.314,3.634h2.935a9.093,9.093,0,0,0-2.231-2.127,9.256,9.256,0,0,0-1.576-.852s-.01,0-.02-.01a8.809,8.809,0,0,0-1.709-.527c-.241-.049-.483-.084-.724-.113v0Zm6.825,4.515H22.724A9.644,9.644,0,0,1,24.1,20.464h2.777a10.026,10.026,0,0,0-.167-1.4,8.333,8.333,0,0,0-.537-1.723,8.9,8.9,0,0,0-.5-1.019ZM15.7,11.054a10.445,10.445,0,0,1,4.038,0,9.4,9.4,0,0,1,1.876.581.052.052,0,0,1,.025.01,10.846,10.846,0,0,1,1.714.931,9.792,9.792,0,0,1,1.482,1.216,9.235,9.235,0,0,1,1.216,1.482,10.633,10.633,0,0,1,.931,1.714,9.55,9.55,0,0,1,.591,1.9,10.445,10.445,0,0,1,0,4.038,9.4,9.4,0,0,1-.581,1.876.052.052,0,0,1-.01.025,10.428,10.428,0,0,1-.931,1.714,9.792,9.792,0,0,1-1.216,1.482,9.235,9.235,0,0,1-1.482,1.216,10.633,10.633,0,0,1-1.714.931,9.55,9.55,0,0,1-1.9.591,10.445,10.445,0,0,1-4.038,0,9.4,9.4,0,0,1-1.876-.581.052.052,0,0,1-.025-.01,10.846,10.846,0,0,1-1.714-.931,9.792,9.792,0,0,1-1.482-1.216A9.235,9.235,0,0,1,9.39,26.54a10.633,10.633,0,0,1-.931-1.714,9.55,9.55,0,0,1-.591-1.9,10.445,10.445,0,0,1,0-4.038,9.4,9.4,0,0,1,.581-1.876.052.052,0,0,1,.01-.025,10.429,10.429,0,0,1,.931-1.714,9.506,9.506,0,0,1,1.216-1.482,9.235,9.235,0,0,1,1.482-1.216,10.633,10.633,0,0,1,1.714-.931,9.651,9.651,0,0,1,1.9-.591Zm2.457,1.32v3.063h2.92a21.129,21.129,0,0,0-2.92-3.063Zm0,3.944v4.146h5.057a9.022,9.022,0,0,0-1.526-4.146Zm0,5.027v4.146h3.683a8.265,8.265,0,0,0,1.393-4.146Zm0,5.032v3.1a19.272,19.272,0,0,0,3.068-3.1Zm-.876,3.1v-3.1H14.215a18.676,18.676,0,0,0,3.068,3.1Zm0-3.979V21.35H12.206A8.3,8.3,0,0,0,13.6,25.5Zm0-5.027V16.323H13.748a9.041,9.041,0,0,0-1.526,4.146Zm0-5.032V12.374a20.638,20.638,0,0,0-2.92,3.063Zm-6.16,26.722a.931.931,0,1,1,0-1.861H24.1a.931.931,0,1,1,0,1.861ZM7.337,37.284a.931.931,0,1,1,0-1.861H27.889a.931.931,0,1,1,0,1.861ZM33.389,5.7H2.851a2.846,2.846,0,0,1-.99-.177v40.3a.825.825,0,0,0,.236.571h0a.8.8,0,0,0,.571.236h30.72V5.7Z" fill="#9c3587"/>
</svg>
