<svg id="Location" xmlns="http://www.w3.org/2000/svg" width="10.726" height="15.323" viewBox="0 0 10.726 15.323">
  <path id="Path_34175" d="M5.395,13.025h0a.631.631,0,0,1-.3-.091A14.139,14.139,0,0,1,1.389,9.449,7.069,7.069,0,0,1,0,5.466,5.49,5.49,0,0,1,2.706.718,5.278,5.278,0,0,1,8.1.762,5.558,5.558,0,0,1,10.03,2.811a5.684,5.684,0,0,1,.7,2.753A8.056,8.056,0,0,1,8.28,10.754a14.366,14.366,0,0,1-2.573,2.16.9.9,0,0,1-.312.11Zm-.038-9.31a1.794,1.794,0,0,0-1.286.541,1.873,1.873,0,0,0-.4,2.023A1.815,1.815,0,0,0,5.356,7.426h.013a1.783,1.783,0,0,0,1.277-.538,1.881,1.881,0,0,0-.588-3.03A1.784,1.784,0,0,0,5.357,3.714Z" transform="translate(0 0)" fill="#9c3587"/>
  <ellipse id="Ellipse_743" cx="3.831" cy="0.766" rx="3.831" ry="0.766" transform="translate(1.532 13.791)" fill="#9c3587" opacity="0.4"/>
</svg>
