<svg xmlns="http://www.w3.org/2000/svg" width="50.75" height="51.537" viewBox="0 0 50.75 51.537">
  <g id="check_document_file_icon_icon-1320196654394535651" data-name="check+document+file+icon+icon-1320196654394535651" transform="translate(-1.5 -1)">
    <path id="Path_24417" data-name="Path 24417" d="M13.132,15.363H34.605a1.432,1.432,0,0,0,0-2.863H13.132a1.432,1.432,0,0,0,0,2.863Z" transform="translate(-2.899 -3.268)" fill="#9c3587"/>
    <path id="Path_24418" data-name="Path 24418" d="M13.132,29.063H34.605a1.432,1.432,0,0,0,0-2.863H13.132a1.432,1.432,0,0,0,0,2.863Z" transform="translate(-2.899 -7.162)" fill="#9c3587"/>
    <path id="Path_24419" data-name="Path 24419" d="M26.732,40h-13.6a1.432,1.432,0,0,0,0,2.863h13.6a1.432,1.432,0,1,0,0-2.863Z" transform="translate(-2.899 -11.084)" fill="#9c3587"/>
    <path id="Path_24420" data-name="Path 24420" d="M23.868,53.8H13.132a1.432,1.432,0,1,0,0,2.863H23.868a1.432,1.432,0,1,0,0-2.863Z" transform="translate(-2.899 -15.006)" fill="#9c3587"/>
    <path id="Path_24421" data-name="Path 24421" d="M40.368,27.055V6.082A5.1,5.1,0,0,0,35.285,1H6.582A5.1,5.1,0,0,0,1.5,6.082V44.735a5.1,5.1,0,0,0,5.082,5.082H31.706a12.446,12.446,0,0,0,7.8,2.72,12.756,12.756,0,0,0,.859-25.482Zm-36,17.68V6.082A2.23,2.23,0,0,1,6.582,3.863h28.7A2.23,2.23,0,0,1,37.5,6.082V27.2A12.778,12.778,0,0,0,26.767,39.8a13.257,13.257,0,0,0,2.219,7.23H6.582A2.342,2.342,0,0,1,4.363,44.735ZM39.58,49.674a9.914,9.914,0,1,1,9.878-9.95A9.9,9.9,0,0,1,39.58,49.674Z" fill="#9c3587"/>
    <path id="Path_24422" data-name="Path 24422" d="M55.906,49.04l-5.44,5.44-1.933-1.933a1.417,1.417,0,1,0-2,2l2.935,2.935a1.384,1.384,0,0,0,2,0l6.442-6.442a1.384,1.384,0,0,0,0-2A1.448,1.448,0,0,0,55.906,49.04Z" transform="translate(-12.676 -13.539)" fill="#9c3587"/>
  </g>
</svg>
