<svg xmlns="http://www.w3.org/2000/svg" width="338.5" height="253.989" viewBox="0 0 338.5 253.989">
  <g id="Group_11885" data-name="Group 11885" transform="translate(-40.24 -70.381)">
    <path id="Path_24306" data-name="Path 24306" d="M61.3,322.861V320l-2.475-.506a7.009,7.009,0,0,0-.612-1.486L59.6,315.9l-2.025-2.025-2.105,1.39a6.991,6.991,0,0,0-1.486-.612l-.506-2.475H50.615l-.506,2.475a7.008,7.008,0,0,0-1.486.612l-2.105-1.39L44.493,315.9l1.391,2.105a6.972,6.972,0,0,0-.613,1.486L42.8,320v2.863l2.475.506a6.971,6.971,0,0,0,.613,1.486l-1.391,2.105,2.025,2.025,2.105-1.39a7.008,7.008,0,0,0,1.486.612l.506,2.475h2.863l.506-2.475a6.991,6.991,0,0,0,1.486-.612l2.105,1.39,2.025-2.025-1.39-2.105a7.008,7.008,0,0,0,.612-1.486Zm-9.251,1.676a3.107,3.107,0,1,1,3.108-3.108A3.107,3.107,0,0,1,52.047,324.538Z" transform="translate(-0.592 -56.018)" fill="#653780"/>
    <rect id="Rectangle_4108" data-name="Rectangle 4108" width="31.823" height="29.032" transform="translate(45.315 277.898)" fill="#eddba2"/>
    <path id="Path_24307" data-name="Path 24307" d="M59.233,341.274,70.52,362l11.123-18.945L70.8,357.905Z" transform="translate(-4.4 -62.759)" fill="#e0c780"/>
    <rect id="Rectangle_4109" data-name="Rectangle 4109" width="14.266" height="29.032" transform="translate(40.327 277.898)" fill="#e0c780"/>
    <path id="Path_24308" data-name="Path 24308" d="M254.486,335.615l-33.542-.873-5.969,29.61H259.4Z" transform="translate(-40.481 -61.245)" fill="#ddd1b3"/>
    <path id="Path_24309" data-name="Path 24309" d="M254.952,334.181l-33.461,1.132-3.543,17.573,39.791-2.4Z" transform="translate(-41.17 -61.115)" fill="#ccbe9e"/>
    <rect id="Rectangle_4110" data-name="Rectangle 4110" width="73.859" height="5.624" transform="translate(159.775 302.353)" fill="#ede6d1"/>
    <path id="Path_24310" data-name="Path 24310" d="M316.621,129.261h-216.5a9.3,9.3,0,0,0-9.519,9.069V285.542a9.3,9.3,0,0,0,9.519,9.069h216.5a9.3,9.3,0,0,0,9.519-9.069V138.33A9.3,9.3,0,0,0,316.621,129.261Z" transform="translate(-11.668 -13.641)" fill="#ede6d1"/>
    <path id="Path_24311" data-name="Path 24311" d="M146.979,294.611h95.339l32.907-165.35H179.886Z" transform="translate(-24.729 -13.641)" fill="#f4eedf"/>
    <path id="Path_24312" data-name="Path 24312" d="M316.621,338.574h-216.5a9.519,9.519,0,0,1-9.519-9.519v2.324c0,5.257,4.262,9.519,10.349,10.054h216.5a10.34,10.34,0,0,0,8.689-10.054v-2.324A9.519,9.519,0,0,1,316.621,338.574Z" transform="translate(-11.668 -59.928)" fill="#e0d4b6"/>
    <path id="Path_24313" data-name="Path 24313" d="M316.621,129.261h-216.5a9.3,9.3,0,0,0-9.519,9.069V268.037H326.14V138.33A9.3,9.3,0,0,0,316.621,129.261Z" transform="translate(-11.668 -13.641)" fill="#514c4d"/>
    <rect id="Rectangle_4111" data-name="Rectangle 4111" width="219.153" height="132.027" transform="translate(87.128 122.369)" fill="#443c3c"/>
    <path id="Path_24415" data-name="Path 24415" d="M0,0H213.378V129.854H0Z" transform="translate(89.873 124.542)" fill="#653780"/>
    <path id="Path_24314" data-name="Path 24314" d="M252.449,326.143H226.273c-1.054,0-1.909.549-1.909,1.226s.854,1.226,1.909,1.226h26.177c1.054,0,1.909-.549,1.909-1.226S253.5,326.143,252.449,326.143Z" transform="translate(-42.657 -59.253)" fill="#ccbe9e"/>
    <path id="Path_24315" data-name="Path 24315" d="M316.621,129.261h-216.5a9.519,9.519,0,0,0-9.519,9.519v1.992a9.519,9.519,0,0,1,9.519-9.519h216.5a9.519,9.519,0,0,1,9.519,9.519V138.78A9.519,9.519,0,0,0,316.621,129.261Z" transform="translate(-11.668 -13.641)" fill="#f4eee1" style="mix-blend-mode: overlay;isolation: isolate"/>
    <path id="Path_24316" data-name="Path 24316" d="M303.667,204.32l.254-.373c.343-.507.7-1.036,1.063-1.58q.273-.408.552-.827c.372-.559.751-1.131,1.133-1.712,1.909-2.905,3.894-6.028,5.486-8.766q.478-.822.9-1.592c.425-.768.806-1.49,1.131-2.151s.592-1.259.791-1.779a6.268,6.268,0,0,0,.376-1.309.722.722,0,0,0-.049-.313c-.006-.018-.01-.034-.017-.052a2.2,2.2,0,0,0-.205-.381l-.039-.057a7.531,7.531,0,0,0-.88-1.024h0c-2.877-2.891-10.047-7.539-11.028-7.3-.957.234-9.964,13.022-13.942,19.022l-.007.01q-.232.349-.439.667l-.059.09c-.144.221-.283.433-.406.626a5.1,5.1,0,0,0-.7,3.832,7.46,7.46,0,0,0,.3,1.1,9.626,9.626,0,0,0,.46,1.081c.176.355.373.7.586,1.046s.441.676.679,1c.357.486.736.95,1.119,1.385s.768.838,1.138,1.206q.184.184.363.355c.238.228.466.439.679.63q.16.144.307.272c.686.6,1.149.943,1.149.943.191.124.386.239.585.343.124.065.252.118.379.175l-23.358,18.587a19.527,19.527,0,0,1-2.439-1.526,25.007,25.007,0,0,0,1.455-2.792s-15.695-18.338-43.152-38.007c-.741-.554-1.494-1.086-2.263-1.606l0,0q-.945-.637-1.911-1.24l-.124-.076q-.867-.539-1.746-1.05l-.289-.167c-.347-.2-.692-.4-1.04-.59a14.59,14.59,0,0,0,6.8-9.467s-12.4-13.679-13.974-19.726c-.92-3.532-1.951-8.933-4.14-13.246.021.015.044.028.065.042a42.731,42.731,0,0,0,3.707-8.764H165.96c-.4.187-.79.37-1.167.55a10.839,10.839,0,0,0-3.923,2.805,5.125,5.125,0,0,0-.917,1.735,7.388,7.388,0,0,0,.331,4.5c.881,2.611,2.84,5.9,5.913,10.162l-.021.081a45.989,45.989,0,0,0,15.207,17.218l.931,7.311c-.28-.169-.441-.269-.441-.269l-3.14,4.74.256.2q-.777.4-1.544.811l-.212.114q-.906.487-1.8.988l-.06.033a100.148,100.148,0,0,0-10.358,6.654c-11.054,5.815-19.441,21.194-26.765,36.374.47.908.977,1.8,1.505,2.681a12.923,12.923,0,0,1-1.9,1.885l-2.385-1.67L94.713,198.451A73.022,73.022,0,0,1,107.853,185.9c.338.166.683.317,1.032.459l0,0q.482.2.974.361c.034.012.068.021.1.031q.448.148.9.267l.13.031q.445.113.891.2l.117.02q.458.082.914.131l.087.008q.474.048.942.06H114q.485.01.963-.022l.026,0q.491-.033.97-.111l.008,0a9.2,9.2,0,0,0,.954-.209,7.926,7.926,0,0,0,4.762-3.556c4.113-6.641-2.086-7.713-2.086-7.713l-.015.03-.008.015-.048.091-.008.012c-.358.655-1.925,3.3-4.269,4.27a4.641,4.641,0,0,1-4.563-.585c-5.25-3.493,2.747-8.284,2.747-8.284a10.466,10.466,0,0,0-4.024-.711,8.626,8.626,0,0,0-2.246.367l-.065.02a8.169,8.169,0,0,0-.993.38h0a8.1,8.1,0,0,0-1.749,1.1l-.06.05a7.876,7.876,0,0,0-.708.667l-.033.038a7.835,7.835,0,0,0-1.113,1.545c-.018.034-.038.068-.055.1a7.455,7.455,0,0,0-.37.811c-.013.034-.024.068-.036.1a7.194,7.194,0,0,0-.259.852l0,.014a6.68,6.68,0,0,0-.135.861c-.005.05-.011.1-.015.149a6.482,6.482,0,0,0-.008.837c0,.048.008.1.012.144a6.163,6.163,0,0,0,.121.844l0,.024a6.075,6.075,0,0,0,.257.832c.02.051.038.1.059.154a6.109,6.109,0,0,0,.388.778c.028.048.059.094.089.141a6.44,6.44,0,0,0,.553.768,12.848,12.848,0,0,0,.945.991q-.622,1-1.3,2c-.161.241-.336.485-.5.727-.293.43-.584.859-.891,1.292-.228.322-.471.646-.707.97-.258.354-.51.708-.777,1.063s-.551.72-.828,1.08c-.248.323-.492.646-.747.971-.3.386-.622.776-.934,1.165-.24.3-.476.6-.721.9-.342.417-.7.837-1.048,1.255-.23.274-.454.546-.688.82-.38.446-.773.9-1.164,1.345l-.5.571-2.582-1.756V223.4c3.55,7.61,27.34,23.2,43.541,30.3l0,0c3.973,1.9,8.012,3.139,11.6,2.946,5.363-.287,10.955-3.7,15.689-7.636,3.733,2.859,6.32,4.479,6.32,4.479s1.2-2.433,2.821-6.147l2.091,20.695h79.211c-.131-1.2-1.219-11.046-2.976-23.24,5.908,5.309,13.458,10.95,19.363,11.486,4.223.383,9.011-1.133,13.357-3.184,13.41-5.888,21.508-20.63,27.5-28.742.065.038.131.083.194.116,4.731,2.466,5.974-2.628,5.661-5.155C314.734,217.278,306.759,207.892,303.667,204.32Z" transform="translate(-11.668 -13.641)" fill="#514c4d" opacity="0.51" style="mix-blend-mode: multiply;isolation: isolate"/>
    <path id="Path_24317" data-name="Path 24317" d="M364.793,282.744c-.542,0-1.08.017-1.618.042h-.038a35.606,35.606,0,0,0-5.23.638l-6.057.739q-1.3.113-2.575.314l-.149.018.008.006c-16.852,2.758-30.579,17.188-31.814,34.586a33.924,33.924,0,0,0,1.158,11.616h52.467a8.826,8.826,0,0,0,5.571-3.187,7.784,7.784,0,0,0,2.127-5.321v-36.47A33.077,33.077,0,0,0,364.793,282.744Z" transform="translate(-64.171 -49.199)" fill="#514c4d" opacity="0.51" style="mix-blend-mode: multiply;isolation: isolate"/>
    <path id="Path_24318" data-name="Path 24318" d="M238.375,85.5c-6.1-7.175-18.91-.55-26.981,3.932-7.45,4.138-8.013,9.372-1.459,23.321l37.4-15.036S246.3,94.828,238.375,85.5Z" transform="translate(-38.26 -2.768)" fill="#9c3587"/>
    <path id="Path_24319" data-name="Path 24319" d="M214.384,89.458c-1.049.554-2.053,1.1-2.991,1.625-7.45,4.138-8.013,9.372-1.459,23.321l25.339-10.189C224.685,103.313,216.205,97.249,214.384,89.458Z" transform="translate(-38.26 -4.42)" fill="#9c3587"/>
    <path id="Path_24320" data-name="Path 24320" d="M228.362,97.971c-11.467.806-17.3,18.168-17.3,18.168s2.983,12.287,12.528,20.682l2.921-1.013S239.828,97.165,228.362,97.971Z" transform="translate(-39.576 -6.389)" fill="#6d2c25"/>
    <path id="Path_24321" data-name="Path 24321" d="M313.124,231.053s7.526,9.2,10.251,10.482,12.458-5.307,12.458-5.307l8.047,26.226s-17.634,15.774-29.03,14.514-26.093-25.937-26.093-25.937Z" transform="translate(-57.574 -37.223)" fill="#e79b69"/>
    <path id="Path_24322" data-name="Path 24322" d="M157.411,233.791s-4.969,8.657-8.107,9.852S135.6,232.1,135.6,232.1l-10.582,24.291s15.82,22.349,28.888,21.469,30.519-24.595,30.519-24.595Z" transform="translate(-19.64 -37.465)" fill="#e79b69"/>
    <path id="Path_24323" data-name="Path 24323" d="M283.564,177.27l3.808,71.869c23.089-1.924,33.992-25.654,33.992-25.654S308.216,201.037,283.564,177.27Z" transform="translate(-56.372 -24.763)" fill="#f89f5b"/>
    <path id="Path_24324" data-name="Path 24324" d="M283.7,179.921l3.7,69.832a35.18,35.18,0,0,0,13.914-4.191,83.591,83.591,0,0,0-.15-28.059C298.349,200.229,291.413,186.026,283.7,179.921Z" transform="translate(-56.404 -25.377)" fill="#fbb986"/>
    <path id="Path_24325" data-name="Path 24325" d="M194.5,274.625h79.669s2.426-69.909-3.026-88.187-29.847-28.36-35.275-29.183c-10.582-1.6-38.482,18.279-42.009,24.052s2.565,52.912,2.565,52.912Z" transform="translate(-35.335 -20.105)" fill="#b553a1"/>
    <path id="Path_24326" data-name="Path 24326" d="M274.471,224.209c-.456,48.425-15.674,50.5-34.394,50.5-19.007,0-34.416-2.1-34.416-52.723,0-19.454,2.282-37.479,6.163-52.317-8.578,5.435-16.226,11.7-17.962,14.538-3.527,5.772,2.565,52.912,2.565,52.912L194.5,277.521h79.669S275.146,249.432,274.471,224.209Z" transform="translate(-35.335 -23.001)" fill="#9c3587"/>
    <path id="Path_24327" data-name="Path 24327" d="M211.31,279.647a192.589,192.589,0,0,0,3.528-38.033c0-28.914-5.447-53.525-13.063-62.775-3.961,3.089-6.915,5.855-7.914,7.49-3.527,5.772,2.565,52.912,2.565,52.912L194.5,279.647Z" transform="translate(-35.335 -25.127)" fill="#9c3587"/>
    <path id="Path_24328" data-name="Path 24328" d="M159.968,225.3c6.093,21.164,24.372,36.8,24.372,36.8s15.934-30.152,17.317-45.216c2.4-26.215-9.5-35.937-9.5-35.937C180.331,188.1,169.618,206.811,159.968,225.3Z" transform="translate(-27.738 -25.614)" fill="#fbb986"/>
    <path id="Path_24329" data-name="Path 24329" d="M178.976,250.005c-7.376-2-9.109-19.3-3.87-38.639,2.792-10.311,7-19.12,11.441-24.8-9.629,8.868-18.48,24.515-26.579,40.031,6.093,21.164,24.372,36.8,24.372,36.8s14.751-27.919,17.094-43.447C196.095,238.591,186.178,251.955,178.976,250.005Z" transform="translate(-27.738 -26.918)" fill="#f89f5b"/>
    <path id="Path_24330" data-name="Path 24330" d="M200.2,180.942a35.614,35.614,0,0,0-5.543,4.26,45.214,45.214,0,0,0,11.175,3.843C203.159,183.364,200.2,180.942,200.2,180.942Z" transform="translate(-35.774 -25.614)" fill="#d8c387"/>
    <path id="Path_24331" data-name="Path 24331" d="M332.215,238.572c-4.169,13.148-6.485,24.338,6.021,31.713,15.147-7.644,31.693-24.853,35.224-36.987l-12.8-13.9Z" transform="translate(-66.873 -34.523)" fill="#edb984"/>
    <path id="Path_24332" data-name="Path 24332" d="M362.485,219.4l-8.724,5.88c2.719-.351,3.365,1.395,4.993,2.841,5.319,4.729,2.993,16.641-7.257,28.171a49.973,49.973,0,0,1-14.743,11.679,24.46,24.46,0,0,0,3.3,2.316c15.147-7.644,31.694-24.853,35.224-36.987Z" transform="translate(-68.695 -34.523)" fill="#e79b69"/>
    <path id="Path_24333" data-name="Path 24333" d="M147.338,239.01c11.865,12.863,6.46,25.218-7.528,29.279-14.8-8.618-27.314-27.432-29.534-36.63l13.488-15.526Z" transform="translate(-16.225 -33.767)" fill="#edb984"/>
    <path id="Path_24334" data-name="Path 24334" d="M147.338,243.428l-2.084-2.022c2.476,9.371,1.593,17.14-3.015,19.78-6.924,3.968-19.592-5.128-28.3-20.316-1.083-1.891-2.054-3.787-2.91-5.666l-.758.873c2.22,9.2,14.415,30.3,29.214,38.917C153.478,270.934,159.2,256.292,147.338,243.428Z" transform="translate(-16.225 -38.185)" fill="#e79b69"/>
    <rect id="Rectangle_4113" data-name="Rectangle 4113" width="11.515" height="6.281" rx="2.553" transform="translate(69.912 245.587)" fill="#eddba2"/>
    <rect id="Rectangle_4114" data-name="Rectangle 4114" width="5.571" height="6.281" rx="2.553" transform="translate(73.433 245.667)" fill="#f4eedf"/>
    <path id="Path_24335" data-name="Path 24335" d="M446.076,253.444v-4.59l-3.967-.811a11.221,11.221,0,0,0-.983-2.382l2.229-3.375-3.246-3.245-3.374,2.228a11.244,11.244,0,0,0-2.383-.982l-.811-3.968h-4.59l-.811,3.968a11.221,11.221,0,0,0-2.382.982l-3.375-2.228-3.245,3.245,2.228,3.375a11.263,11.263,0,0,0-.983,2.382l-3.966.811v4.59l3.966.811a11.286,11.286,0,0,0,.983,2.383l-2.228,3.375,3.245,3.246,3.375-2.229a11.223,11.223,0,0,0,2.382.983l.811,3.967h4.59l.811-3.967a11.2,11.2,0,0,0,2.383-.983l3.374,2.229,3.246-3.246-2.229-3.375a11.244,11.244,0,0,0,.983-2.383Zm-14.83,6.121a8.415,8.415,0,1,1,8.415-8.416A8.416,8.416,0,0,1,431.245,259.565Z" transform="translate(-87.15 -38.443)" fill="#653780"/>
    <path id="Path_24336" data-name="Path 24336" d="M425.907,221.509v-3.772l-3.26-.667a9.246,9.246,0,0,0-.807-1.958l1.832-2.774L421,209.671,418.23,211.5a9.261,9.261,0,0,0-1.958-.808l-.667-3.26h-3.772l-.667,3.26a9.244,9.244,0,0,0-1.958.808l-2.774-1.832-2.668,2.668,1.832,2.774a9.243,9.243,0,0,0-.808,1.958l-3.26.667v3.772l3.26.667a9.243,9.243,0,0,0,.808,1.958l-1.832,2.774,2.668,2.668,2.774-1.832a9.244,9.244,0,0,0,1.958.807l.667,3.26h3.772l.667-3.26a9.261,9.261,0,0,0,1.958-.807L421,229.575l2.668-2.668-1.832-2.774a9.246,9.246,0,0,0,.807-1.958Zm-12.188,3.472a5.358,5.358,0,1,1,5.358-5.358A5.358,5.358,0,0,1,413.719,224.981Z" transform="translate(-83.701 -31.752)" fill="#653780"/>
    <g id="Group_11871" data-name="Group 11871" transform="translate(291.012 170.725)">
      <g id="Group_11870" data-name="Group 11870" transform="translate(0 0)">
        <path id="Path_24337" data-name="Path 24337" d="M381.146,201.188a39.484,39.484,0,0,0-13.47,13.193,7.037,7.037,0,0,0,1.3,8.932l3,2.758c2.2,2.021,7.636,3.8,11.342,2.123,3.889-1.763,6.156-7.3,7.9-10.422C395.782,209.6,384.185,199.4,381.146,201.188Z" transform="translate(-366.627 -200.982)" fill="#e79b69"/>
      </g>
    </g>
    <path id="Path_24338" data-name="Path 24338" d="M370.142,200.822l7.7,7.688-1.167,8.147L365.141,207.5Z" transform="translate(-75.271 -30.22)" fill="#e88d3a"/>
    <path id="Path_24339" data-name="Path 24339" d="M366.067,215.334s9.1,15.566,14.349,16.8,5.907-5.188,5.267-8.047S370.625,209.3,370.625,209.3Z" transform="translate(-75.485 -32.185)" fill="#eddba2"/>
    <path id="Path_24340" data-name="Path 24340" d="M239.585,157.255c-6.8-1.03-20.749,6.813-30.788,14.083,10.87,15.132,13.1,34.483,12.893,47.069a4.62,4.62,0,0,0,4.579,4.686l38.435.429a4.627,4.627,0,0,0,4.675-4.327c.6-9.518,1.229-32.529-5.16-48.514C255.011,162.377,243.167,157.8,239.585,157.255Z" transform="translate(-39.05 -20.105)" fill="#fbb986"/>
    <path id="Path_24341" data-name="Path 24341" d="M268.3,173.951c-2.3-2.072-4.5-3.41-3.2-2.24,6.389,15.984,5.763,38.995,5.16,48.513a4.627,4.627,0,0,1-4.675,4.327l-38.435-.429a4.545,4.545,0,0,1-.749-.084,4.619,4.619,0,0,0,3.951,2.325l38.435.429a4.627,4.627,0,0,0,4.675-4.327C274.059,212.947,274.686,189.936,268.3,173.951Z" transform="translate(-43.127 -23.375)" fill="#d8c387"/>
    <g id="Group_11872" data-name="Group 11872" transform="translate(169.747 137.059)">
      <path id="Path_24342" data-name="Path 24342" d="M239.585,157.255c-6.8-1.03-20.748,6.813-30.788,14.083a61.348,61.348,0,0,1,7.174,13.33,92.531,92.531,0,0,0,17.2.336c13.5-.957,25.323-4.523,32.761-9.292-.508-1.732-1.073-3.419-1.716-5.029C255.011,162.377,243.167,157.8,239.585,157.255Z" transform="translate(-208.797 -157.164)" fill="#f89f5b"/>
    </g>
    <path id="Path_24343" data-name="Path 24343" d="M226.748,155.727l.642-26.457,19.081-.16,5.131,24.051C250,165.989,232.36,168.233,226.748,155.727Z" transform="translate(-43.209 -13.606)" fill="#d27558"/>
    <path id="Path_24344" data-name="Path 24344" d="M221.322,164.756l3.849-5.772s12.9,10.635,17.8,9.46c3.19-.764,7.536-10.743,7.536-10.743l5.291,4.489-.191,13.378-10.885-1.494-8.11,6.83Z" transform="translate(-41.952 -20.23)" fill="#fbb986"/>
    <path id="Path_24345" data-name="Path 24345" d="M223.555,107.748a98.013,98.013,0,0,0,13.218,47.011s12.795,2.061,22.307-1.044,12.163-13.5,12.163-13.5-10.306-16.4-10.955-23.684-.757-21.2-7.932-23.575S223.334,90.45,223.555,107.748Z" transform="translate(-42.469 -4.966)" fill="#84392d"/>
    <path id="Path_24346" data-name="Path 24346" d="M257.935,102.679c.264,0,.526.015.788.023-1.014-4.6-2.831-8.582-6.367-9.752-7.176-2.373-29.022-2.5-28.8,14.8a94.354,94.354,0,0,0,3.983,25.515C229.367,116.034,242.274,102.679,257.935,102.679Z" transform="translate(-42.469 -4.966)" fill="#6d2c25"/>
    <path id="Path_24347" data-name="Path 24347" d="M223.307,123.958c-3.059-2.131-6.042-1.431-6.664,1.564s1.354,7.147,4.413,9.278,6.043,1.431,6.664-1.564S226.366,126.089,223.307,123.958Z" transform="translate(-40.841 -12.127)" fill="#edb984"/>
    <path id="Path_24348" data-name="Path 24348" d="M254.269,70.406c-16.969.952-38.116,21.332-42.963,39.578,7.713-13.41,34.456-23.475,44.1-14.276C255.406,95.709,271.238,69.454,254.269,70.406Z" transform="translate(-39.631)" fill="#f89f5b"/>
    <path id="Path_24349" data-name="Path 24349" d="M235.807,107.41s.3,14.779,2.959,17.962c2.7,3.239,22.624-1.692,22.782-4.085.153-2.311-1.816-14.983-2.343-17.056C257.2,96.365,235.956,100.5,235.807,107.41Z" transform="translate(-45.308 -6.852)" fill="#edb984"/>
    <path id="Path_24350" data-name="Path 24350" d="M257.436,106.485c.75,0,1.491.029,2.226.073-.19-1.08-.353-1.916-.457-2.327-2-7.866-23.249-3.729-23.4,3.179,0,0,.061,2.967.367,6.527C241.307,109.379,248.925,106.485,257.436,106.485Z" transform="translate(-45.308 -6.852)" fill="#e79b69"/>
    <path id="Path_24351" data-name="Path 24351" d="M109.576,306.671c-1.674-1.465-34.754-3.35-34.754-3.35-2.722,9.631-4.4,40.617,1.046,57.575h50.876S127.542,322.391,109.576,306.671ZM107.8,347.128s-4-28.013-3.842-35.7c4.962-.64,15.207,21.928,15.207,35.7Z" transform="translate(-7.423 -53.966)" fill="#edc451"/>
    <path id="Path_24352" data-name="Path 24352" d="M69.072,284.668l-.9-4.322-3.9.017a10.79,10.79,0,0,0-1.394-2.05l1.434-3.617-3.695-2.417-2.739,2.763a10.783,10.783,0,0,0-2.436-.456L53.9,271.011l-4.323.9.017,3.9a10.76,10.76,0,0,0-2.049,1.394l-3.617-1.434-2.418,3.7,2.764,2.739a10.766,10.766,0,0,0-.456,2.436l-3.576,1.545.9,4.322,3.9-.017a10.793,10.793,0,0,0,1.395,2.05L45,296.157l3.695,2.417,2.739-2.763a10.825,10.825,0,0,0,2.436.456l1.545,3.576,4.323-.9-.017-3.895a10.8,10.8,0,0,0,2.049-1.395l3.617,1.434,2.417-3.7-2.763-2.739a10.807,10.807,0,0,0,.456-2.436Zm-13.435,5.45a4.793,4.793,0,1,1,3.71-5.672A4.792,4.792,0,0,1,55.637,290.118Z" transform="translate(0 -46.481)" fill="#653780"/>
    <path id="Path_24353" data-name="Path 24353" d="M123.984,335.1c1.9,15.921-3.222,20.6-15.853,20.6-12.612,0-24.079-10.637-30.176-31.144a59.463,59.463,0,0,1-2.482-21.2l-.652-.038c-2.722,9.631-4.4,40.617,1.046,57.575h50.876A121.706,121.706,0,0,0,123.984,335.1Z" transform="translate(-7.423 -53.966)" fill="#eaad42"/>
    <path id="Path_24354" data-name="Path 24354" d="M109.616,311.813c-.213,8.576,5.109,39.843,5.109,39.843h15.113C129.838,336.288,122.847,311.813,109.616,311.813Zm6.829,37.282s-4-28.013-3.842-35.7c4.962-.64,15.207,21.928,15.207,35.7Z" transform="translate(-16.071 -55.933)" fill="#eaad42"/>
    <path id="Path_24355" data-name="Path 24355" d="M100.432,331.378H76.421l1.921,21.93h24.011Z" transform="translate(-8.382 -60.466)" fill="#eddba2"/>
    <path id="Path_24356" data-name="Path 24356" d="M97.918,324.294H77.046l.418,2.881H98.336Z" transform="translate(-8.527 -58.825)" fill="#eddba2"/>
    <path id="Path_24357" data-name="Path 24357" d="M41.482,341.316l5.462,16.031,7.043-16.031-6.805,13.261Z" transform="translate(-0.288 -62.768)" fill="#c6a85c"/>
    <path id="Path_24358" data-name="Path 24358" d="M53.883,372.358l-6.742-13.23-5.763,13.229,5.746-10.944Z" transform="translate(-0.264 -66.895)" fill="#c6a85c"/>
    <path id="Path_24359" data-name="Path 24359" d="M223.086,127.221c-1.926-1.474-3.728-1.212-4.023.585s1.026,4.448,2.953,5.922,3.728,1.212,4.024-.584S225.013,128.695,223.086,127.221Z" transform="translate(-41.419 -12.947)" fill="#d27558"/>
    <path id="Path_24360" data-name="Path 24360" d="M225.986,132.245c-1.176-.907-2.325-.68-2.568.509a4.334,4.334,0,0,0,1.687,3.8c1.176.908,2.325.681,2.568-.508A4.333,4.333,0,0,0,225.986,132.245Z" transform="translate(-42.427 -14.204)" fill="#edb984"/>
    <path id="Path_24361" data-name="Path 24361" d="M255.457,72.094c2.887-.161,4.807.476,6.034,1.627-.96-2.184-3.131-3.544-7.221-3.315-16.969.952-38.116,21.332-42.963,39.578a24.672,24.672,0,0,1,3.428-4.529C222.063,89.082,240.4,72.94,255.457,72.094Z" transform="translate(-39.631 0)" fill="#ddc685"/>
    <ellipse id="Ellipse_2483" data-name="Ellipse 2483" cx="2.401" cy="3.522" rx="2.401" ry="3.522" transform="translate(183.718 207.736)" fill="#f4e4b8"/>
    <path id="Path_24362" data-name="Path 24362" d="M285.743,251.772c0-1.945-1.075-3.522-2.4-3.522s-2.4,1.577-2.4,3.522,1.075,3.521,2.4,3.521S285.743,253.717,285.743,251.772Z" transform="translate(-55.764 -41.207)" fill="#f4e4b8"/>
    <g id="Group_11873" data-name="Group 11873" transform="translate(178.435 208.697)">
      <path id="Path_24363" data-name="Path 24363" d="M230.35,261.288H220.1v-1.281H230.35a2.991,2.991,0,0,0,2.989-2.987V250.4h1.281v6.617A4.274,4.274,0,0,1,230.35,261.288Z" transform="translate(-220.105 -250.403)" fill="#5281a0"/>
    </g>
    <g id="Group_11874" data-name="Group 11874" transform="translate(221.335 208.697)">
      <path id="Path_24364" data-name="Path 24364" d="M284.478,261.288H279.2c-1.8,0-3.265-1.915-3.265-4.268V250.4h1.281v6.617c0,1.619.908,2.987,1.984,2.987h5.273a2.991,2.991,0,0,0,2.988-2.987v-5.55h1.281v5.55A4.273,4.273,0,0,1,284.478,261.288Z" transform="translate(-275.94 -250.403)" fill="#5281a0"/>
    </g>
    <g id="Group_11876" data-name="Group 11876" transform="translate(292.259 127.443)">
      <path id="Rectangle_4115" data-name="Rectangle 4115" d="M3.331,0h3.92a3.331,3.331,0,0,1,3.331,3.331v8.213a0,0,0,0,1,0,0H0a0,0,0,0,1,0,0V3.331A3.331,3.331,0,0,1,3.331,0Z" transform="translate(4.518 13.016) rotate(23.04)" fill="#b2ccce"/>
      <path id="Path_24365" data-name="Path 24365" d="M387.1,145.23l-1.369-.582-7.16,16.993,1.369.582Z" transform="translate(-370.641 -144.648)" fill="#b2ccce"/>
      <path id="Path_24366" data-name="Path 24366" d="M380.86,160.34a2.41,2.41,0,0,0-3.162,1.275l-1.116,2.622,4.437,1.888,1.116-2.622A2.411,2.411,0,0,0,380.86,160.34Z" transform="translate(-370.181 -148.239)" fill="#b2ccce"/>
      <path id="Path_24367" data-name="Path 24367" d="M381.551,164.97l-5.027-2.138a2.547,2.547,0,0,0-2.233.124c.064.128.107.257.176.383,2.05,3.749,5.829,5.632,8.44,4.2.073-.04.127-.1.2-.148A2.556,2.556,0,0,0,381.551,164.97Z" transform="translate(-369.65 -148.815)" fill="#d3eced"/>
      <g id="Group_11875" data-name="Group 11875" transform="translate(10.653)">
        <path id="Path_24368" data-name="Path 24368" d="M383.863,157.508l-1.021-1.408-.727,1.725,1.021,1.408Z" transform="translate(-382.115 -147.302)" fill="#91aeaf"/>
        <path id="Path_24369" data-name="Path 24369" d="M385.549,153.506l-1.021-1.408-.727,1.725,1.021,1.408Z" transform="translate(-382.506 -146.374)" fill="#91aeaf"/>
        <path id="Path_24370" data-name="Path 24370" d="M387.236,149.5l-1.021-1.408-.727,1.725,1.021,1.408Z" transform="translate(-382.897 -145.447)" fill="#91aeaf"/>
        <path id="Path_24371" data-name="Path 24371" d="M388.922,145.63l-.494-.682-.706-.3-.547,1.3,1.021,1.408Z" transform="translate(-383.287 -144.648)" fill="#91aeaf"/>
      </g>
    </g>
    <path id="Path_24372" data-name="Path 24372" d="M378.233,173.09c-.072,4.485-8.493,24.8-11.745,32.483a5.61,5.61,0,0,1-7.107,3.068s-10.926-5.042-7.846-12.877c2.784-7.082,11.878-28.3,12.922-28.962C365.708,166.008,378.269,170.844,378.233,173.09Z" transform="translate(-71.992 -22.318)" fill="#f9eac0"/>
    <path id="Path_24373" data-name="Path 24373" d="M378.233,174.5c.007-.477-.558-1.073-1.46-1.706a65.241,65.241,0,0,1-2.823,8.523c-5.328,13.039-13.562,22.01-18.391,20.036-1.828-.747-2.9-2.96-3.247-6.124-.294.722-.558,1.381-.778,1.943-3.079,7.835,7.846,12.877,7.846,12.877a5.61,5.61,0,0,0,7.107-3.068C369.74,199.3,378.16,178.983,378.233,174.5Z" transform="translate(-71.992 -23.726)" fill="#eddba2"/>
    <g id="Group_11877" data-name="Group 11877" transform="translate(255.831 211.361)">
      <ellipse id="Ellipse_2484" data-name="Ellipse 2484" cx="38.572" cy="40.718" rx="38.572" ry="40.718" transform="matrix(0.681, -0.732, 0.732, 0.681, 0, 57.524)" fill="#4c4545"/>
      <path id="Path_24374" data-name="Path 24374" d="M398.176,274.764l-15.62,1.935,8.046,6.027Z" transform="translate(-335.136 -258.711)" fill="#4c4545"/>
      <path id="Path_24375" data-name="Path 24375" d="M395.951,377.218h10.213l-5.261-7.961Z" transform="translate(-338.24 -280.603)" fill="#4c4545"/>
      <ellipse id="Ellipse_2485" data-name="Ellipse 2485" cx="38.888" cy="41.122" rx="38.888" ry="41.122" transform="matrix(0.792, -0.611, 0.611, 0.792, 11.091, 47.514)" fill="#605757"/>
      <ellipse id="Ellipse_2486" data-name="Ellipse 2486" cx="28.17" cy="29.788" rx="28.17" ry="29.788" transform="translate(26.5 49.939) rotate(-37.655)" fill="#4c4545"/>
      <path id="Path_24376" data-name="Path 24376" d="M371.594,324.525a26.9,26.9,0,0,1,25.253-17.111c13.791,0,25.833,9.868,29.32,23.031a28.634,28.634,0,0,0,1.937-12.084c-.858-16.123-14.422-29.195-30.3-29.195s-28.047,13.072-27.189,29.195A30.4,30.4,0,0,0,371.594,324.525Z" transform="translate(-332.361 -262.048)" fill="#3d3636"/>
      <ellipse id="Ellipse_2487" data-name="Ellipse 2487" cx="21.585" cy="22.786" rx="21.585" ry="22.786" transform="matrix(0.681, -0.732, 0.732, 0.681, 32.835, 57.307)" fill="#dbc077"/>
      <path id="Path_24377" data-name="Path 24377" d="M415.107,322.42a20.155,20.155,0,0,0-19.91-18.843A17.685,17.685,0,0,0,377.33,322.42a20.155,20.155,0,0,0,19.91,18.844A17.686,17.686,0,0,0,415.107,322.42Z" transform="translate(-333.919 -265.387)" fill="#eddba2"/>
      <path id="Path_24378" data-name="Path 24378" d="M428.761,318.072c-.886-16.653-14.895-30.152-31.289-30.152s-28.967,13.5-28.081,30.152,14.9,30.152,31.29,30.152S429.647,334.725,428.761,318.072ZM400.6,346.7c-15.564,0-28.863-12.816-29.7-28.624s11.094-28.624,26.658-28.624,28.863,12.815,29.7,28.624S416.163,346.7,400.6,346.7Z" transform="translate(-332.076 -261.759)" fill="#dbc077"/>
      <path id="Path_24379" data-name="Path 24379" d="M405.06,327.23a3.1,3.1,0,0,0-3.061-2.9,2.719,2.719,0,0,0-2.747,2.9,3.1,3.1,0,0,0,3.061,2.9A2.718,2.718,0,0,0,405.06,327.23Z" transform="translate(-339.004 -270.195)" fill="#3d3636"/>
      <path id="Path_24380" data-name="Path 24380" d="M400.351,303.139a1.845,1.845,0,0,0-1.823-1.725,1.619,1.619,0,0,0-1.636,1.725,1.845,1.845,0,0,0,1.823,1.726A1.619,1.619,0,0,0,400.351,303.139Z" transform="translate(-338.457 -264.885)" fill="#4c4545"/>
      <path id="Path_24381" data-name="Path 24381" d="M411.046,353a1.846,1.846,0,0,0-1.823-1.726A1.62,1.62,0,0,0,407.586,353a1.847,1.847,0,0,0,1.823,1.726A1.62,1.62,0,0,0,411.046,353Z" transform="translate(-340.935 -276.437)" fill="#4c4545"/>
      <path id="Path_24382" data-name="Path 24382" d="M429.1,320.362a1.846,1.846,0,0,0-1.823-1.726,1.62,1.62,0,0,0-1.637,1.726,1.847,1.847,0,0,0,1.824,1.726A1.619,1.619,0,0,0,429.1,320.362Z" transform="translate(-345.118 -268.875)" fill="#4c4545"/>
      <path id="Path_24383" data-name="Path 24383" d="M381.318,334.191a1.846,1.846,0,0,0-1.823-1.726,1.62,1.62,0,0,0-1.637,1.726,1.847,1.847,0,0,0,1.823,1.726A1.62,1.62,0,0,0,381.318,334.191Z" transform="translate(-334.048 -272.079)" fill="#4c4545"/>
      <path id="Path_24384" data-name="Path 24384" d="M385.068,314.19a1.845,1.845,0,0,0-1.823-1.725,1.619,1.619,0,0,0-1.637,1.725,1.846,1.846,0,0,0,1.824,1.726A1.619,1.619,0,0,0,385.068,314.19Z" transform="translate(-334.916 -267.446)" fill="#4c4545"/>
      <path id="Path_24385" data-name="Path 24385" d="M417.708,306.551a1.846,1.846,0,0,0-1.823-1.726,1.62,1.62,0,0,0-1.637,1.726,1.847,1.847,0,0,0,1.824,1.726A1.62,1.62,0,0,0,417.708,306.551Z" transform="translate(-342.478 -265.676)" fill="#4c4545"/>
      <path id="Path_24386" data-name="Path 24386" d="M427.014,341.275a1.845,1.845,0,0,0-1.823-1.726,1.62,1.62,0,0,0-1.637,1.725A1.846,1.846,0,0,0,425.377,343,1.619,1.619,0,0,0,427.014,341.275Z" transform="translate(-344.634 -273.72)" fill="#4c4545"/>
      <path id="Path_24387" data-name="Path 24387" d="M393.819,349.469a1.847,1.847,0,0,0-1.824-1.726,1.62,1.62,0,0,0-1.636,1.726,1.846,1.846,0,0,0,1.823,1.726A1.62,1.62,0,0,0,393.819,349.469Z" transform="translate(-336.944 -275.619)" fill="#4c4545"/>
    </g>
    <path id="Path_24388" data-name="Path 24388" d="M95.836,210.969c-3.582-2.2-3.62-3.912-2.979-5.64.635-1.713,1.7-2.808,5.252-.716,3.635,2.142,6.157,5.366,5.55,7.17C103.046,213.6,99.505,213.224,95.836,210.969Z" transform="translate(-12.117 -30.833)" fill="#e79b69"/>
    <path id="Path_24389" data-name="Path 24389" d="M93,220.616c-3.819-2.492-3.875-4.277-3.214-6.044.655-1.751,1.775-2.836,5.56-.466,3.883,2.43,6.6,5.937,5.975,7.79C100.687,223.766,96.917,223.173,93,220.616Z" transform="translate(-11.404 -32.981)" fill="#e79b69"/>
    <path id="Path_24390" data-name="Path 24390" d="M89.259,230.31c-3.66-2.472-3.67-4.331-2.98-6.194.684-1.846,1.8-3.012,5.428-.665,3.717,2.406,6.273,5.967,5.617,7.916C96.663,233.337,93.011,232.845,89.259,230.31Z" transform="translate(-10.584 -35.158)" fill="#e79b69"/>
    <g id="Group_11880" data-name="Group 11880" transform="translate(80.142 175.744)">
      <g id="Group_11879" data-name="Group 11879">
        <g id="Group_11878" data-name="Group 11878">
          <path id="Path_24391" data-name="Path 24391" d="M102.161,207.519c2.937.27,3.416-.343,11.371,4.841a7.317,7.317,0,0,1,2.688,8.976l-5.63-2.465c-1.179,2.876.6,16.818-3.156,14.919-4.313-2.18-11.974-4.84-14.969-7C90.555,225.286,98.532,207.185,102.161,207.519Z" transform="translate(-92.174 -207.514)" fill="#e79b69"/>
        </g>
      </g>
      <path id="Path_24392" data-name="Path 24392" d="M119.492,209.564c3.514.055,6.129,5.519,5.9,11.965-.22,6.194,1.3,13.372-1.876,13.5-3.227.134-10.462-7-10.485-13.364C113.008,215.043,115.923,209.509,119.492,209.564Z" transform="translate(-97.006 -207.989)" fill="#edb984"/>
    </g>
    <g id="Group_11882" data-name="Group 11882" transform="translate(191.159 97.522)">
      <path id="Path_24393" data-name="Path 24393" d="M249.108,122.376c-.275-2.078-1.481-3.7-2.694-3.619s-1.973,1.829-1.7,3.906,1.481,3.7,2.694,3.62S249.383,124.454,249.108,122.376Z" transform="translate(-238.517 -108.729)" fill="#5a4949"/>
      <path id="Path_24394" data-name="Path 24394" d="M244.668,107.745,237.4,110.8a1.232,1.232,0,0,0-.643,1.6l.966,2.373a1.2,1.2,0,0,0,1.57.675l7.267-3.056a1.233,1.233,0,0,0,.642-1.605l-.965-2.373A1.2,1.2,0,0,0,244.668,107.745Z" transform="translate(-236.665 -106.157)" fill="#84392d"/>
      <path id="Path_24395" data-name="Path 24395" d="M265.611,119.416c-.605-2.01-2.055-3.415-3.235-3.139s-1.648,2.13-1.042,4.14,2.054,3.414,3.235,3.139S266.217,121.425,265.611,119.416Z" transform="translate(-242.319 -108.147)" fill="#5a4949"/>
      <path id="Path_24396" data-name="Path 24396" d="M266.444,106.2l-6.645-.495a.994.994,0,0,0-1.04,1.016L258.7,109a1.121,1.121,0,0,0,.985,1.169l6.645.495a.994.994,0,0,0,1.039-1.016l.056-2.276A1.121,1.121,0,0,0,266.444,106.2Z" transform="translate(-241.771 -105.705)" fill="#84392d"/>
      <path id="Path_24397" data-name="Path 24397" d="M256.913,120.778c2.646,4.607,3.686,7.573,1.932,8.768-1.1.747-2.817.631-4.2.363l-.021.093s4.347,1.564,6.28.44C262.815,129.331,260.883,126.036,256.913,120.778Z" transform="translate(-240.825 -109.197)" fill="#d27558"/>
      <g id="Group_11881" data-name="Group 11881" transform="translate(8.109 24.71)">
        <path id="Path_24398" data-name="Path 24398" d="M247.511,137.866l-.291,1.959c.2.1,5.072,2.379,11.781-.316l-.448-.821A12.423,12.423,0,0,1,247.511,137.866Z" transform="translate(-247.22 -137.866)" fill="#59221e"/>
      </g>
      <path id="Path_24399" data-name="Path 24399" d="M257.74,145.647c-.038.579-1.2.968-2.595.871s-2.5-.645-2.46-1.224,1.2-.968,2.6-.871S257.777,145.069,257.74,145.647Z" transform="translate(-240.376 -114.672)" fill="#59221e"/>
    </g>
    <path id="Path_24400" data-name="Path 24400" d="M389.491,217.795c-3.2,2.273-2.81,3.8-1.7,5.281s2.491,2.351,5.686.179c3.271-2.225,5.1-5.316,4.013-6.869C396.386,214.818,392.769,215.466,389.491,217.795Z" transform="translate(-80.332 -33.627)" fill="#edb984"/>
    <path id="Path_24401" data-name="Path 24401" d="M384.087,209.222c-3.375,2.552-2.986,4.146-1.848,5.662s2.574,2.37,5.946-.071c3.459-2.5,5.427-5.863,4.3-7.458C391.355,205.744,387.552,206.6,384.087,209.222Z" transform="translate(-79.043 -31.544)" fill="#edb984"/>
    <path id="Path_24402" data-name="Path 24402" d="M377.7,200.881c-3.213,2.521-2.757,4.177-1.564,5.776,1.181,1.584,2.646,2.524,5.858.117,3.29-2.466,5.073-5.86,3.9-7.539C384.7,197.54,381,198.3,377.7,200.881Z" transform="translate(-77.611 -29.642)" fill="#edb984"/>
    <path id="Path_24403" data-name="Path 24403" d="M365.2,209.867c-3.055,1.488-7.884,10.644-5.071,16.17,2.7,5.311,13.443,4.114,10.885-1.441C368.352,218.809,368.307,208.356,365.2,209.867Z" transform="translate(-73.914 -32.281)" fill="#edb984"/>
    <path id="Path_24404" data-name="Path 24404" d="M379.121,204.855c-.748-.217-4.181,1.5-10.034,2.262-4.106.532-6.192,5.971-3.482,9.828,3.38.34,15.127-5.051,16.062-6.964C382.688,207.891,380.75,205.33,379.121,204.855Z" transform="translate(-75.096 -31.15)" fill="#edb984"/>
    <g id="Group_11884" data-name="Group 11884" transform="translate(59.68 140.238)">
      <path id="Path_24405" data-name="Path 24405" d="M124.4,166.086s-3.385,9.456-8.506,6.057,2.476-10.467,2.476-10.467c-8.534-2.615-14.149,9.17-9.777,14.8a11.8,11.8,0,0,0,.928,1.052c-6.25,14.1-16.784,29.906-28.838,46.324-2.251-.818-6.9-1.6-12.379,6.25-2.247,3.216-2.924,5.889-2.731,7.938a2.419,2.419,0,0,0,4.726.341,7.006,7.006,0,0,1,2.317-3.236c5.055-4.552,8.571,1.894,8.571,1.894l-1.68,7.481a1.809,1.809,0,0,0,2.737,1.931c6.895-4.651,8.087-13.985,3.643-19.228,2.322-5.4,14.938-33.978,27.4-47.1,4.689,2.111,10.529,1.262,13.287-5.011C130.406,166.4,124.4,166.086,124.4,166.086Z" transform="translate(-65.542 -161.302)" fill="#b2ccce"/>
      <g id="Group_11883" data-name="Group 11883" transform="translate(0 0.153)">
        <path id="Path_24406" data-name="Path 24406" d="M114.327,177.573C108.216,191.357,98,206.781,86.284,222.808a8.474,8.474,0,0,1,1.251.347c12.054-16.418,22.588-32.227,28.838-46.324a11.8,11.8,0,0,1-.928-1.052c-3.236-4.167-1-11.7,3.845-14.277-6.2,1.267-9.554,10.3-5.891,15.019A11.8,11.8,0,0,0,114.327,177.573Z" transform="translate(-70.347 -161.502)" fill="#91b4b5"/>
        <path id="Path_24407" data-name="Path 24407" d="M142.447,168a4.158,4.158,0,0,0-1.534-.473s-1.535,4.28-4.1,6.044C139.558,173.449,141.559,169.921,142.447,168Z" transform="translate(-82.054 -162.898)" fill="#91b4b5"/>
        <path id="Path_24408" data-name="Path 24408" d="M130.038,184.83c-.348.366-.7.748-1.044,1.138a9.848,9.848,0,0,0,7.764-.338A10.736,10.736,0,0,1,130.038,184.83Z" transform="translate(-80.242 -166.906)" fill="#91b4b5"/>
        <path id="Path_24409" data-name="Path 24409" d="M84.645,265.332l1.68-7.481s-3-5.474-7.437-2.737c3.287-.35,5.391,3.479,5.391,3.479l-1.68,7.481A1.809,1.809,0,0,0,85.335,268c.237-.16.449-.337.672-.507A1.823,1.823,0,0,1,84.645,265.332Z" transform="translate(-68.634 -183.012)" fill="#91b4b5"/>
        <path id="Path_24410" data-name="Path 24410" d="M67.62,256.056c-.194-2.048.483-4.721,2.73-7.938a17.249,17.249,0,0,1,6.129-5.838c-2.276.485-5.093,2.17-8.175,6.58-2.247,3.216-2.924,5.889-2.731,7.938a2.433,2.433,0,0,0,4.186,1.344A2.286,2.286,0,0,1,67.62,256.056Z" transform="translate(-65.542 -180.216)" fill="#91b4b5"/>
      </g>
    </g>
    <path id="Path_24411" data-name="Path 24411" d="M95.662,223.559c3.843,1.3,3.9,2.938,3.238,4.744-.658,1.791-1.783,3.086-5.592,1.881-3.9-1.234-6.624-3.76-6-5.632C87.945,222.664,91.725,222.225,95.662,223.559Z" transform="translate(-10.884 -35.309)" fill="#edb984"/>
    <path id="Path_24412" data-name="Path 24412" d="M98.341,213.478c4.1,1.529,4.179,3.232,3.494,5.08-.678,1.832-1.859,3.129-5.922,1.71-4.167-1.454-7.1-4.208-6.458-6.131C90.107,212.2,94.134,211.91,98.341,213.478Z" transform="translate(-11.381 -32.918)" fill="#edb984"/>
    <path id="Path_24413" data-name="Path 24413" d="M102.36,203.218c3.929,1.546,3.961,3.33,3.247,5.278-.708,1.93-1.887,3.3-5.78,1.872-3.989-1.468-6.754-4.311-6.077-6.334C94.432,201.99,98.332,201.634,102.36,203.218Z" transform="translate(-12.373 -30.546)" fill="#edb984"/>
    <path id="Path_24414" data-name="Path 24414" d="M115.377,198.678c.7.4,1.883,4.2,5.523,9.093,2.554,3.436,0,8.933-4.815,9.72-2.681-2.263-7.106-14.9-6.353-16.985C110.554,198.231,113.854,197.812,115.377,198.678Z" transform="translate(-16.08 -29.626)" fill="#edb984"/>
  </g>
</svg>
