<svg xmlns="http://www.w3.org/2000/svg" width="220.041" height="198.726" viewBox="0 0 220.041 198.726">
  <g id="Group_11908" data-name="Group 11908" transform="translate(-34 -75.066)">
    <g id="Group_11907" data-name="Group 11907" transform="translate(34 75.066)">
      <g id="Group_11893" data-name="Group 11893" transform="translate(30.323 39.33)">
        <rect id="Rectangle_4118" data-name="Rectangle 4118" width="14.234" height="17.043" transform="translate(72.581 18.417)" fill="#767285"/>
        <rect id="Rectangle_4119" data-name="Rectangle 4119" width="20.916" height="5.164" transform="translate(69.24 13.252)" fill="#b8b3cf"/>
        <rect id="Rectangle_4120" data-name="Rectangle 4120" width="14.234" height="17.043" transform="translate(107.27 24.651) rotate(33.818)" fill="#767285"/>
        <rect id="Rectangle_4121" data-name="Rectangle 4121" width="20.916" height="5.164" transform="matrix(0.831, 0.557, -0.557, 0.831, 107.369, 18.501)" fill="#b8b3cf"/>
        <rect id="Rectangle_4122" data-name="Rectangle 4122" width="14.234" height="17.043" transform="translate(61.611 38.811) rotate(146.182)" fill="#767285"/>
        <rect id="Rectangle_4123" data-name="Rectangle 4123" width="20.916" height="5.164" transform="matrix(-0.831, 0.557, -0.557, -0.831, 54.901, 22.792)" fill="#b8b3cf"/>
        <circle id="Ellipse_2488" data-name="Ellipse 2488" cx="56.355" cy="56.355" r="56.355" transform="translate(0 79.698) rotate(-45)" fill="#b8b3cf"/>
        <circle id="Ellipse_2489" data-name="Ellipse 2489" cx="48.727" cy="48.727" r="48.727" transform="translate(30.971 30.971)" fill="#fff"/>
        <g id="Group_11889" data-name="Group 11889" transform="translate(77.374 34.588)">
          <circle id="Ellipse_2490" data-name="Ellipse 2490" cx="2.324" cy="2.324" r="2.324" transform="translate(0)" fill="#968fb0"/>
          <path id="Path_24423" data-name="Path 24423" d="M250.085,390.512a2.324,2.324,0,1,1-2.324-2.324A2.324,2.324,0,0,1,250.085,390.512Z" transform="translate(-245.437 -302.616)" fill="#968fb0"/>
        </g>
        <g id="Group_11890" data-name="Group 11890" transform="translate(34.588 77.374)">
          <circle id="Ellipse_2491" data-name="Ellipse 2491" cx="2.324" cy="2.324" r="2.324" transform="translate(85.572)" fill="#968fb0"/>
          <circle id="Ellipse_2492" data-name="Ellipse 2492" cx="2.324" cy="2.324" r="2.324" fill="#968fb0"/>
        </g>
        <g id="Group_11891" data-name="Group 11891" transform="translate(47.8 47.8)">
          <line id="Line_328" data-name="Line 328" x1="4.839" y2="4.839" transform="translate(58.956)" fill="none" stroke="#424874" stroke-linecap="round" stroke-miterlimit="10" stroke-width="2"/>
          <line id="Line_329" data-name="Line 329" x1="4.839" y2="4.839" transform="translate(0 58.956)" fill="none" stroke="#424874" stroke-linecap="round" stroke-miterlimit="10" stroke-width="2"/>
        </g>
        <g id="Group_11892" data-name="Group 11892" transform="translate(47.8 47.8)">
          <line id="Line_330" data-name="Line 330" x2="4.839" y2="4.839" fill="none" stroke="#424874" stroke-linecap="round" stroke-miterlimit="10" stroke-width="2"/>
          <line id="Line_331" data-name="Line 331" x2="4.839" y2="4.839" transform="translate(58.956 58.956)" fill="none" stroke="#424874" stroke-linecap="round" stroke-miterlimit="10" stroke-width="2"/>
        </g>
        <path id="Path_24424" data-name="Path 24424" d="M243.526,285.135l25.446-19.1L248.62,290.492a3.722,3.722,0,0,1-5.557.184h0A3.722,3.722,0,0,1,243.526,285.135Z" transform="translate(-166.396 -208.096)" fill="#424874"/>
      </g>
      <g id="Group_11894" data-name="Group 11894" transform="translate(10.097 39.043)">
        <rect id="Rectangle_4124" data-name="Rectangle 4124" width="73.622" height="3.447" rx="1.723" fill="#767285"/>
        <rect id="Rectangle_4125" data-name="Rectangle 4125" width="73.622" height="3.447" rx="1.723" transform="translate(0 132.893)" fill="#767285"/>
        <path id="Path_24425" data-name="Path 24425" d="M118.21,248.255c-2.905-4.7-6.693-7.9-10.879-11.371-3.094-2.566-10.724-8.818-10.513-13.677-.211-4.858,7.419-11.111,10.513-13.676,4.186-3.471,7.973-6.672,10.879-11.371a52.3,52.3,0,0,0,5.967-14.715c.385-1.518,3.917-24.961,2.966-24.961H61.514c-.951,0,2.581,23.443,2.966,24.961a52.271,52.271,0,0,0,5.967,14.715c2.905,4.7,6.692,7.9,10.878,11.371,3.094,2.566,10.724,8.818,10.514,13.676.21,4.858-7.419,11.111-10.514,13.677-4.186,3.471-7.973,6.672-10.878,11.371a52.271,52.271,0,0,0-5.967,14.715c-.385,1.518-3.917,24.961-2.966,24.961h65.629c.95,0-2.582-23.443-2.966-24.961A52.3,52.3,0,0,0,118.21,248.255Z" transform="translate(-57.517 -155.037)" fill="#ecc8ad"/>
        <path id="Path_24426" data-name="Path 24426" d="M110,221.931c3.929-3.324,7.484-6.389,10.211-10.889a50.653,50.653,0,0,0,5.6-14.093c.082-.331.318-1.753.622-3.749a42.319,42.319,0,0,0-7.886.527c-4.885.728-9.722,1.921-14.658,2.075-7.034.22-13.942-1.676-20.724-3.556l-14.747-4.088c.619,4.414,1.216,8.22,1.358,8.79a50.651,50.651,0,0,0,5.6,14.093c2.728,4.5,6.282,7.565,10.212,10.889,2.9,2.457,11.367,8.446,11.169,13.1v36.611c-20.543.977-25.862,30.85-25.862,30.85h53.8s-5.319-29.873-25.862-30.85V235.03C98.636,230.377,107.1,224.388,110,221.931Z" transform="translate(-60.986 -169.597)" fill="#f89f5b"/>
        <path id="Path_24427" data-name="Path 24427" d="M72.431,262.97A52.286,52.286,0,0,1,78.4,248.255c2.905-4.7,6.692-7.9,10.878-11.371,2.2-1.824,6.69-5.512,9.028-9.238a7.375,7.375,0,0,1,0-8.878c-2.337-3.725-6.828-7.414-9.028-9.238C85.09,206.06,81.3,202.859,78.4,198.16a52.286,52.286,0,0,1-5.967-14.715c-.385-1.518-3.917-24.961-2.966-24.961h-7.95c-.951,0,2.581,23.443,2.966,24.961a52.271,52.271,0,0,0,5.967,14.715c2.905,4.7,6.692,7.9,10.878,11.371,3.094,2.566,10.724,8.818,10.514,13.676.21,4.858-7.419,11.111-10.514,13.677-4.186,3.471-7.973,6.672-10.878,11.371a52.271,52.271,0,0,0-5.967,14.715c-.385,1.518-3.917,24.961-2.966,24.961h7.95C68.514,287.931,72.045,264.488,72.431,262.97Z" transform="translate(-57.517 -155.037)" fill="#dcd6f7" style="mix-blend-mode: multiply;isolation: isolate"/>
        <path id="Path_24428" data-name="Path 24428" d="M151.133,248.255c-2.905-4.7-6.693-7.9-10.879-11.371-3.094-2.566-10.724-8.818-10.513-13.677-.211-4.858,7.419-11.111,10.513-13.676,4.186-3.471,7.973-6.672,10.879-11.371a52.3,52.3,0,0,0,5.967-14.715c.385-1.518,3.917-24.961,2.966-24.961h-1.283c.951,0-2.581,23.443-2.966,24.961a52.288,52.288,0,0,1-5.967,14.715c-2.905,4.7-6.692,7.9-10.878,11.371-3.094,2.566-10.724,8.818-10.514,13.676-.21,4.858,7.42,11.111,10.514,13.677,4.186,3.471,7.973,6.672,10.878,11.371a52.288,52.288,0,0,1,5.967,14.715c.385,1.518,3.917,24.961,2.966,24.961h1.283c.95,0-2.582-23.443-2.966-24.961A52.3,52.3,0,0,0,151.133,248.255Z" transform="translate(-90.441 -155.037)" fill="#dcd6f7" opacity="0.5" style="mix-blend-mode: screen;isolation: isolate"/>
      </g>
      <rect id="Rectangle_4126" data-name="Rectangle 4126" width="220.041" height="2.824" transform="translate(0 175.383)" fill="#968fb0"/>
      <g id="Group_11895" data-name="Group 11895" transform="translate(162.159 140.797)">
        <rect id="Rectangle_4127" data-name="Rectangle 4127" width="26.318" height="3.983" rx="1.991" transform="translate(0.675)" fill="#23263d"/>
        <path id="Path_24429" data-name="Path 24429" d="M357.034,359.307l-4.672,30.6h1.35l6.319-30.6Z" transform="translate(-352.363 -355.324)" fill="#424874"/>
        <path id="Path_24430" data-name="Path 24430" d="M394.625,359.307l4.672,30.6h-1.35l-6.319-30.6Z" transform="translate(-371.628 -355.324)" fill="#424874"/>
      </g>
      <g id="Group_11897" data-name="Group 11897" transform="translate(123.709 77.165)">
        <path id="Path_24431" data-name="Path 24431" d="M352.71,251.4a1.541,1.541,0,1,1-1.541-1.541A1.541,1.541,0,0,1,352.71,251.4Z" transform="translate(-312.57 -237.993)" fill="#eb9481"/>
        <path id="Path_24432" data-name="Path 24432" d="M368.071,256.169l-9.31,2.308,4.781,5.2Z" transform="translate(-317.052 -241.088)" fill="#616885"/>
        <path id="Path_24433" data-name="Path 24433" d="M352.91,248.758l1.016,4.8,12.7,3.867a5.916,5.916,0,0,1,4.068,4.447l4.889,22.5a3.179,3.179,0,0,1-3.112,3.831H331.2l4.659-25.7a5.851,5.851,0,0,1,3.451-4.2l10.573-4.47.7-5.082Z" transform="translate(-303.527 -237.452)" fill="#eb9481"/>
        <path id="Path_24434" data-name="Path 24434" d="M362.812,256.185h0a5.661,5.661,0,0,0,4.5-4.451l-.63-2.976h-2.335l-.7,5.082-4.388,1.855A5.628,5.628,0,0,0,362.812,256.185Z" transform="translate(-317.296 -237.452)" fill="#784940" opacity="0.5" style="mix-blend-mode: multiply;isolation: isolate"/>
        <path id="Path_24435" data-name="Path 24435" d="M333.679,299.3h5.385l1.6,13.705H331.2Z" transform="translate(-303.527 -262.249)" fill="#eb9481"/>
        <path id="Path_24436" data-name="Path 24436" d="M344.03,299.3,342.814,313h3.551l-1.6-13.705Z" transform="translate(-309.227 -262.249)" fill="#59362f" opacity="0.4" style="mix-blend-mode: multiply;isolation: isolate"/>
        <path id="Path_24437" data-name="Path 24437" d="M345.362,260.958l5.2,4.056,5.109-6.111,11.94,3.634a5.916,5.916,0,0,1,3.885,3.774l4.334,12.887H364.805l2.118,8.68-18.986.837v4.468h-6.725l-1.6-13.705h-7.3l2.767-11.585a5.854,5.854,0,0,1,3.414-4.032Z" transform="translate(-304.075 -242.43)" fill="#9c3587"/>
        <path id="Path_24438" data-name="Path 24438" d="M395.158,294.573v10.922l2.6-.115Z" transform="translate(-334.91 -259.931)" fill="#a6b1e1" style="mix-blend-mode: multiply;isolation: isolate"/>
        <path id="Path_24439" data-name="Path 24439" d="M339.613,297.482h-7.3l.45-1.885h6.629Z" transform="translate(-304.075 -260.433)" fill="#f4eeff"/>
        <line id="Line_332" data-name="Line 332" x2="2.554" y2="23.567" transform="translate(46.491 22.585)" fill="none" stroke="#22242e" stroke-miterlimit="10" stroke-width="1"/>
        <path id="Path_24440" data-name="Path 24440" d="M347.8,316.07l-7.329-1.416-8.435,3.824H347.8Z" transform="translate(-303.941 -269.783)" fill="#eb9481"/>
        <path id="Path_24441" data-name="Path 24441" d="M317.464,314.654l-16.76,1.8v4.083h15.531Z" transform="translate(-288.567 -269.783)" fill="#fff" stroke="#000" stroke-miterlimit="10" stroke-width="1"/>
        <path id="Path_24442" data-name="Path 24442" d="M309.844,303.581h-28.2l-4.77-19.289h28.2Z" transform="translate(-276.874 -254.887)" fill="#dcd6f7"/>
        <rect id="Rectangle_4128" data-name="Rectangle 4128" width="43.765" height="2.059" transform="translate(4.77 48.695)" fill="#968fb0"/>
        <line id="Line_333" data-name="Line 333" x1="1.604" y1="13.035" transform="translate(34.929 31.835)" fill="none" stroke="#22242e" stroke-miterlimit="10" stroke-width="1"/>
        <path id="Path_24443" data-name="Path 24443" d="M363.135,265.9l-2.024,2.513-3.18-6.569.423-1.14Z" transform="translate(-316.644 -243.312)" fill="#f4eeff"/>
        <path id="Path_24444" data-name="Path 24444" d="M368.148,263.673l2.966,2.513,2.143-8.624-.58-1.393Z" transform="translate(-321.657 -241.088)" fill="#f4eeff"/>
        <path id="Path_24445" data-name="Path 24445" d="M395.158,294.573h10.795l.715,2.127H395.64Z" transform="translate(-334.91 -259.931)" fill="#f4eeff"/>
        <g id="Group_11896" data-name="Group 11896" transform="translate(11.997 53.123)">
          <path id="Path_24446" data-name="Path 24446" d="M342.288,330.855l1.232,5.8a3.9,3.9,0,0,1-3.811,4.7H313.777l2.931,27.746h-7.245L300.624,337.5a5.234,5.234,0,0,1,5.041-6.644Z" transform="translate(-300.427 -330.855)" fill="#23263d"/>
          <path id="Path_24447" data-name="Path 24447" d="M366.133,330.855l1.232,5.8a3.9,3.9,0,0,1-3.811,4.7H337.621l2.932,27.746h-7.245l-8.84-31.611a5.235,5.235,0,0,1,5.041-6.644Z" transform="translate(-312.126 -330.855)" fill="#424874"/>
        </g>
        <path id="Path_24448" data-name="Path 24448" d="M306.08,405.96l-12.548,6.84h21.533l-1.74-6.84Z" transform="translate(-285.047 -314.582)" fill="#7e86ab"/>
        <path id="Path_24449" data-name="Path 24449" d="M329.924,405.96l-12.548,6.84h21.533l-1.74-6.84Z" transform="translate(-296.746 -314.582)" fill="#a6b1e1"/>
        <path id="Path_24450" data-name="Path 24450" d="M375.33,245.162a1.539,1.539,0,0,1-1.542,1.542,1.469,1.469,0,0,1-.327-.035c-.018-.143-.041-.291-.065-.433l-.445-2.367a1.5,1.5,0,0,1,.836-.25A1.543,1.543,0,0,1,375.33,245.162Z" transform="translate(-324.014 -234.931)" fill="#eb9481"/>
        <path id="Path_24451" data-name="Path 24451" d="M357.73,246.837h0a5.661,5.661,0,0,1-6.613-4.512l-.8-4.25a5.661,5.661,0,0,1,4.512-6.613h0a5.661,5.661,0,0,1,6.613,4.511l.8,4.25A5.662,5.662,0,0,1,357.73,246.837Z" transform="translate(-312.858 -228.916)" fill="#eb9481"/>
        <path id="Path_24452" data-name="Path 24452" d="M360.781,237.2l-1.489-2.469-.3-2.156a9.188,9.188,0,0,1-6.91.628,5.2,5.2,0,0,1-3.1,2.518l.57,1.073.233,3.177a18.146,18.146,0,0,1-2.221-5.023c-.3-1.954.4-4.886,1.938-5.793a6.245,6.245,0,0,1,8.389-1.6C363.11,230.479,360.781,237.2,360.781,237.2Z" transform="translate(-311.524 -226.561)" fill="#212121"/>
        <line id="Line_334" data-name="Line 334" x1="3.563" y1="15.059" transform="translate(59.285 30.39)" fill="none" stroke="#22242e" stroke-miterlimit="10" stroke-width="1"/>
      </g>
      <g id="Group_11899" data-name="Group 11899" transform="translate(107.315 127.918)">
        <rect id="Rectangle_4129" data-name="Rectangle 4129" width="102.369" height="2.369" transform="translate(0.748)" fill="#b8b3cf"/>
        <g id="Group_11898" data-name="Group 11898" transform="translate(0 2.369)">
          <path id="Path_24453" data-name="Path 24453" d="M253.191,330.855l-8.5,45.1H247.3l9.786-45.1Z" transform="translate(-244.688 -330.855)" fill="#424874"/>
          <path id="Path_24454" data-name="Path 24454" d="M428.152,330.855l8.5,45.1h-2.616l-9.786-45.1Z" transform="translate(-332.791 -330.855)" fill="#424874"/>
        </g>
      </g>
      <g id="Group_11903" data-name="Group 11903" transform="translate(170.821 23.549)">
        <path id="Path_24480" data-name="Path 24480" d="M0,0H33.16V42.067H0Z" fill="#dcd6f7"/>
        <g id="Group_11900" data-name="Group 11900" transform="translate(3.991 4.615)">
          <rect id="Rectangle_4131" data-name="Rectangle 4131" width="5.079" height="5.079" transform="translate(0.728 1.317)" fill="#968fb0"/>
          <path id="Path_24455" data-name="Path 24455" d="M378.2,132.271l2.3,2.146,3.24-4.056-3.24,5.581-3.3-2.108Z" transform="translate(-377.203 -130.361)" fill="#fff"/>
          <rect id="Rectangle_4132" data-name="Rectangle 4132" width="16.483" height="0.899" transform="translate(8.694 1.317)" fill="#968fb0"/>
          <rect id="Rectangle_4133" data-name="Rectangle 4133" width="11.27" height="0.899" transform="translate(8.694 3.856)" fill="#968fb0"/>
        </g>
        <g id="Group_11901" data-name="Group 11901" transform="translate(3.991 13.671)">
          <rect id="Rectangle_4134" data-name="Rectangle 4134" width="5.079" height="5.079" transform="translate(0.728 1.317)" fill="#968fb0"/>
          <path id="Path_24456" data-name="Path 24456" d="M378.2,150.051l2.3,2.146,3.24-4.056-3.24,5.581-3.3-2.108Z" transform="translate(-377.203 -148.14)" fill="#fff"/>
          <rect id="Rectangle_4135" data-name="Rectangle 4135" width="16.483" height="0.899" transform="translate(8.694 1.317)" fill="#968fb0"/>
          <rect id="Rectangle_4136" data-name="Rectangle 4136" width="11.27" height="0.899" transform="translate(8.694 3.856)" fill="#968fb0"/>
        </g>
        <g id="Group_11902" data-name="Group 11902" transform="translate(3.991 22.727)">
          <rect id="Rectangle_4137" data-name="Rectangle 4137" width="5.079" height="5.079" transform="translate(0.728 1.316)" fill="#968fb0"/>
          <path id="Path_24457" data-name="Path 24457" d="M378.2,167.83l2.3,2.146,3.24-4.056L380.5,171.5l-3.3-2.108Z" transform="translate(-377.203 -165.92)" fill="#fff"/>
          <rect id="Rectangle_4138" data-name="Rectangle 4138" width="16.483" height="0.899" transform="translate(8.694 1.316)" fill="#968fb0"/>
          <rect id="Rectangle_4139" data-name="Rectangle 4139" width="11.27" height="0.899" transform="translate(8.694 3.856)" fill="#968fb0"/>
        </g>
      </g>
      <g id="Group_11904" data-name="Group 11904" transform="translate(114.007 10.247)">
        <path id="Path_24481" data-name="Path 24481" d="M0,0H6.963V18.834H0Z" transform="translate(2.967 11.685)" fill="#dcd6f7"/>
        <rect id="Rectangle_4141" data-name="Rectangle 4141" width="6.963" height="23.328" transform="translate(13.16 7.191)" fill="#dcd6f7"/>
        <path id="Path_24482" data-name="Path 24482" d="M0,0H6.963V13.462H0Z" transform="translate(23.353 17.057)" fill="#dcd6f7"/>
        <rect id="Rectangle_4143" data-name="Rectangle 4143" width="6.963" height="26.924" transform="translate(33.547 3.595)" fill="#dcd6f7"/>
        <path id="Path_24458" data-name="Path 24458" d="M257.826,95.184V125.7h43.681" transform="translate(-257.826 -95.184)" fill="none" stroke="#c1bcd9" stroke-miterlimit="10" stroke-width="1"/>
      </g>
      <g id="Group_11905" data-name="Group 11905" transform="translate(68.583)">
        <rect id="Rectangle_4144" data-name="Rectangle 4144" width="27.565" height="14.279" transform="translate(0 13.842)" fill="#dcd6f7"/>
        <path id="Path_24459" data-name="Path 24459" d="M168.647,120.937l13.783-9.695,13.783,9.695Z" transform="translate(-168.647 -92.816)" fill="#c1bcd9"/>
        <path id="Path_24460" data-name="Path 24460" d="M168.647,102.243l13.783,9.168,13.783-9.168Z" transform="translate(-168.647 -88.4)" fill="#c1bcd9"/>
        <path id="Path_24461" data-name="Path 24461" d="M168.647,93.238,182.43,83.89l13.783,9.348Z" transform="translate(-168.647 -79.395)" fill="#dcd6f7"/>
        <path id="Path_24462" data-name="Path 24462" d="M185.861,75.066h-10.22V91.278l10.22,6.8,10.22-6.8V75.066Z" transform="translate(-172.079 -75.066)" fill="#c1bcd9"/>
        <line id="Line_335" data-name="Line 335" x2="13.41" transform="translate(8.096 3.775)" fill="none" stroke="#fff" stroke-miterlimit="10" stroke-width="1"/>
        <line id="Line_336" data-name="Line 336" x2="15.447" transform="translate(6.059 6.711)" fill="none" stroke="#fff" stroke-miterlimit="10" stroke-width="1"/>
        <line id="Line_337" data-name="Line 337" x2="15.447" transform="translate(6.059 9.648)" fill="none" stroke="#fff" stroke-miterlimit="10" stroke-width="1"/>
        <line id="Line_338" data-name="Line 338" x2="15.447" transform="translate(6.059 12.584)" fill="none" stroke="#fff" stroke-miterlimit="10" stroke-width="1"/>
        <line id="Line_339" data-name="Line 339" x2="10.353" transform="translate(6.059 15.52)" fill="none" stroke="#fff" stroke-miterlimit="10" stroke-width="1"/>
      </g>
      <g id="Group_11906" data-name="Group 11906" transform="translate(21.882 7.385)">
        <path id="Path_24463" data-name="Path 24463" d="M76.96,103.032c0-4.774,6.274-8.643,14.013-8.643s14.013,3.87,14.013,8.643-6.274,8.643-14.013,8.643a21.732,21.732,0,0,1-5.353-.655l-3.321,3.3,1.012-4.054C79.487,108.724,76.96,106.06,76.96,103.032Z" transform="translate(-76.96 -91.931)" fill="#c1bcd9"/>
        <path id="Path_24464" data-name="Path 24464" d="M119.958,98.207c0-4.773-6.274-8.643-14.013-8.643s-14.013,3.87-14.013,8.643,6.274,8.643,14.013,8.643a21.708,21.708,0,0,0,5.353-.655l3.321,3.3-1.012-4.055C117.431,103.9,119.958,101.235,119.958,98.207Z" transform="translate(-84.306 -89.564)" fill="#c1bcd9"/>
        <path id="Path_24465" data-name="Path 24465" d="M108.938,109.889a1.017,1.017,0,1,1-1.017-1.017A1.017,1.017,0,0,1,108.938,109.889Z" transform="translate(-91.652 -99.037)" fill="#fff"/>
        <path id="Path_24466" data-name="Path 24466" d="M119.481,109.889a1.017,1.017,0,1,1-1.017-1.017A1.017,1.017,0,0,1,119.481,109.889Z" transform="translate(-96.825 -99.037)" fill="#fff"/>
        <path id="Path_24467" data-name="Path 24467" d="M130.024,109.889a1.017,1.017,0,1,1-1.017-1.017A1.017,1.017,0,0,1,130.024,109.889Z" transform="translate(-101.998 -99.037)" fill="#fff"/>
      </g>
      <path id="Path_24468" data-name="Path 24468" d="M166.206,184.23s-.926,16.725-9.794,26.313" transform="translate(-94.061 -128.627)" fill="none" stroke="#fff" stroke-linecap="round" stroke-miterlimit="10" stroke-width="4"/>
      <path id="Path_24469" data-name="Path 24469" d="M146.955,317.168s10.689,7.259,14.045,18.764" transform="translate(-89.421 -193.852)" fill="none" stroke="#fff" stroke-linecap="round" stroke-miterlimit="10" stroke-width="4"/>
      <path id="Path_24470" data-name="Path 24470" d="M402.028,228.947a3,3,0,1,1-3-3A3,3,0,0,1,402.028,228.947Z" transform="translate(-211.627 -149.095)" fill="none" stroke="#dcd6f7" stroke-miterlimit="10" stroke-width="1"/>
      <path id="Path_24471" data-name="Path 24471" d="M416.508,374.374a3,3,0,1,1-3-3A3,3,0,0,1,416.508,374.374Z" transform="translate(-218.732 -220.448)" fill="none" stroke="#dcd6f7" stroke-miterlimit="10" stroke-width="1"/>
      <path id="Path_24472" data-name="Path 24472" d="M90.674,288.468a3,3,0,1,1-3-3A3,3,0,0,1,90.674,288.468Z" transform="translate(-58.862 -178.298)" fill="none" stroke="#dcd6f7" stroke-miterlimit="10" stroke-width="1"/>
      <path id="Path_24473" data-name="Path 24473" d="M229.578,152.21a3,3,0,1,1-3-3A3,3,0,0,1,229.578,152.21Z" transform="translate(-127.015 -111.444)" fill="none" stroke="#dcd6f7" stroke-miterlimit="10" stroke-width="1"/>
      <path id="Path_24474" data-name="Path 24474" d="M342.174,178.02a2.122,2.122,0,1,1-2.122-2.121A2.122,2.122,0,0,1,342.174,178.02Z" transform="translate(-183.122 -124.539)" fill="none" stroke="#dcd6f7" stroke-miterlimit="10" stroke-width="1"/>
      <path id="Path_24475" data-name="Path 24475" d="M429.556,254.337l-2.062,2.062-2.062-2.062-1.18,1.18,2.062,2.062-2.062,2.062,1.18,1.18,2.062-2.062,2.062,2.062,1.18-1.18-2.062-2.062,2.062-2.062Z" transform="translate(-225.476 -163.025)" fill="#dcd6f7"/>
      <path id="Path_24476" data-name="Path 24476" d="M378.463,393.307l-2.062,2.062-2.062-2.062-1.18,1.18,2.062,2.062-2.062,2.062,1.18,1.18,2.062-2.062,2.062,2.062,1.18-1.18-2.062-2.062,2.062-2.062Z" transform="translate(-200.407 -231.21)" fill="#dcd6f7"/>
      <path id="Path_24477" data-name="Path 24477" d="M361.927,88.82l-2.062,2.062L357.8,88.82,356.624,90l2.062,2.062-2.062,2.062,1.18,1.18,2.062-2.062,2.062,2.062,1.18-1.18-2.062-2.062L363.107,90Z" transform="translate(-192.294 -81.814)" fill="#dcd6f7"/>
      <path id="Path_24478" data-name="Path 24478" d="M61,258.173l-2.062,2.062-2.062-2.062-1.18,1.18,2.062,2.062-2.062,2.062,1.18,1.18,2.062-2.062L61,264.656l1.18-1.18-2.062-2.062,2.062-2.062Z" transform="translate(-44.644 -164.907)" fill="#dcd6f7"/>
    </g>
    <path id="Path_24479" data-name="Path 24479" d="M276.874,284.292s7.33,16.286,32.97,19.289h-28.2Z" transform="translate(-119.165 -102.656)" fill="#dcd6f7" opacity="0.5" style="mix-blend-mode: multiply;isolation: isolate"/>
  </g>
</svg>
