<svg xmlns="http://www.w3.org/2000/svg" width="52.361" height="18.98" viewBox="0 0 52.361 18.98">
  <g id="minisplit-svgrepo-com" transform="translate(0 -43.413)">
    <g id="Group_11745" data-name="Group 11745" transform="translate(0 43.413)">
      <path id="Path_24187" data-name="Path 24187" d="M4.909,63.133h2.06s.25-1.08.561-2.413S10.289,58.307,13,58.307H40c2.711,0,5.06,1.081,5.247,2.413l.338,2.413h1.871a4.91,4.91,0,0,0,4.909-4.909V49.062a4.9,4.9,0,0,0-3.623-4.718,5.845,5.845,0,0,1,.187,1.444v1.963a5.9,5.9,0,0,1-5.891,5.89H9.326a5.9,5.9,0,0,1-5.89-5.89V45.788a5.835,5.835,0,0,1,.187-1.444A4.9,4.9,0,0,0,0,49.062v9.163A4.909,4.909,0,0,0,4.909,63.133Z" transform="translate(0 -44.153)" fill="#3f1651"/>
      <path id="Path_24188" data-name="Path 24188" d="M30.212,50.94H63.917a3.93,3.93,0,0,0,3.927-3.927V45.05a3.869,3.869,0,0,0-.368-1.637H26.653a3.881,3.881,0,0,0-.368,1.637v1.963A3.932,3.932,0,0,0,30.212,50.94Zm-1.948-5.788H65.325a.491.491,0,1,1,0,.982H28.264a.491.491,0,0,1,0-.982Zm0,3.068H65.325a.491.491,0,1,1,0,.982H28.264a.491.491,0,1,1,0-.982Z" transform="translate(-20.885 -43.413)" fill="#3f1651"/>
      <path id="Path_24189" data-name="Path 24189" d="M77.008,120.087c-.144-.994-2.458-1.8-5.17-1.8H47.459c-2.71,0-5.056.806-5.236,1.8l-.327,1.8H77.269Z" transform="translate(-33.29 -102.906)" fill="#3f1651"/>
    </g>
  </g>
</svg>
